<?xml version="1.0" encoding="UTF-8"?> <svg xmlns="http://www.w3.org/2000/svg" width="176" height="52" viewBox="0 0 176 52" fill="none"> <path d="M31.2001 39.9238C31.2001 41.0258 31.0001 42.0276 30.8001 42.829C30.6001 43.6305 30.1001 44.432 29.5001 45.0331C28.9001 45.6342 28.2001 46.1351 27.4001 46.4356C26.6001 46.7362 25.6001 46.9365 24.6001 46.9365C23.7001 46.9365 22.8001 46.8363 22.1001 46.7362C21.4001 46.636 20.7001 46.4356 20.1001 46.1351L20.6001 43.6305C21.0001 43.8309 21.5001 43.9311 22.2001 44.0312C22.9001 44.1314 23.5001 44.2316 24.2001 44.2316C25.3001 44.2316 26.2001 43.9311 26.9001 43.4301C27.6001 42.9292 28.0001 42.0276 28.1001 40.9256H22.8001V38.6214H28.0001C27.9001 37.5194 27.5001 36.8181 26.8001 36.217C26.2001 35.7161 25.3001 35.4155 24.2001 35.4155C23.5001 35.4155 22.9001 35.5157 22.4001 35.6159C21.9001 35.7161 21.4001 35.8163 20.9001 36.0166L20.3001 33.6123C20.9001 33.4119 21.5001 33.2115 22.2001 33.0112C22.9001 32.911 23.6001 32.8108 24.3001 32.8108C25.4001 32.8108 26.3001 33.0112 27.2001 33.3117C28.0001 33.6123 28.7001 34.1132 29.3001 34.7143C29.9001 35.3154 30.3001 36.1168 30.6001 36.9183C31.0001 37.9201 31.2001 38.8217 31.2001 39.9238Z" fill="#6EE0D7"></path> <path d="M39.4 35.8154C39.4 36.6169 39.4 37.3182 39.3 38.2198C39.3 39.0213 39.2 39.8227 39.1 40.6242C39 41.4257 38.8 42.1269 38.5 42.9284C38.2 43.6297 37.8 44.331 37.4 44.8319C36.9 45.433 36.3 45.9339 35.6 46.2344C34.9 46.6352 34 46.8355 32.9 46.9357L32.5 44.331C33.4 44.1306 34 43.9302 34.5 43.5295C35 43.1288 35.3 42.6279 35.6 42.0268C35.8 41.626 36 41.0249 36.1 40.524C36.2 39.9229 36.3 39.3218 36.4 38.7207C36.5 38.1196 36.5 37.4184 36.5 36.8173C36.5 36.116 36.5 35.5149 36.5 34.9138V33.2107H46V46.6352H42.9V35.8154H39.4Z" fill="#6EE0D7"></path> <path d="M48.9001 40.0235C48.9001 38.8213 49.1001 37.8195 49.4001 36.9179C49.7001 36.0162 50.2001 35.3149 50.8001 34.7138C51.4001 34.1127 52.1001 33.712 52.8001 33.4115C53.5001 33.1109 54.3001 33.0107 55.1001 33.0107C56.9001 33.0107 58.4001 33.6118 59.4001 34.7138C60.4001 35.8158 61.0001 37.6191 61.0001 39.8231C61.0001 40.0235 61.0001 40.2239 61.0001 40.4242C61.0001 40.6246 61.0001 40.825 61.0001 41.0253H52.1001C52.2001 42.1273 52.6001 42.9288 53.2001 43.5299C53.9001 44.131 54.9001 44.4315 56.1001 44.4315C56.9001 44.4315 57.5001 44.3313 58.2001 44.2312C58.8001 44.131 59.3001 43.9306 59.7001 43.8304L60.1001 46.335C59.9001 46.4352 59.7001 46.5354 59.4001 46.6355C59.1001 46.7357 58.8001 46.8359 58.4001 46.9361C58.0001 47.0363 57.6001 47.0363 57.2001 47.1365C56.8001 47.2366 56.3001 47.2366 55.8001 47.2366C54.6001 47.2366 53.6001 47.0363 52.7001 46.7357C51.8001 46.4352 51.1001 45.9343 50.5001 45.233C49.9001 44.6319 49.5001 43.8304 49.2001 43.029C48.9001 42.2275 48.9001 41.0253 48.9001 40.0235ZM57.9001 38.621C57.9001 38.2202 57.8001 37.8195 57.7001 37.4188C57.6001 37.018 57.4001 36.7175 57.2001 36.4169C57.0001 36.1164 56.7001 35.916 56.4001 35.7157C56.1001 35.5153 55.7001 35.5153 55.2001 35.5153C54.7001 35.5153 54.3001 35.6155 53.9001 35.8158C53.5001 36.0162 53.2001 36.2166 53.0001 36.5171C52.8001 36.8177 52.6001 37.1182 52.4001 37.5189C52.3001 37.9197 52.2001 38.3204 52.1001 38.7211H57.9001V38.621Z" fill="#6EE0D7"></path> <path d="M67.2002 38.6206C67.6002 38.2198 68.0002 37.8191 68.5002 37.3182C69.0002 36.8173 69.4002 36.3164 69.9002 35.8154C70.4002 35.3145 70.8002 34.8136 71.2002 34.4129C71.6002 34.0122 72.0002 33.6114 72.2002 33.2107H75.8002C75.4002 33.6114 75.0002 34.1123 74.5002 34.7134C74.0002 35.2143 73.5002 35.8154 73.0002 36.3164C72.5002 36.9174 72.0002 37.4184 71.5002 37.9193C71.0002 38.4202 70.5002 38.9211 70.1002 39.3218C70.6002 39.7226 71.2002 40.3237 71.8002 40.9248C72.4002 41.5259 72.9002 42.1269 73.5002 42.8282C74.1002 43.5295 74.6002 44.1306 75.1002 44.8319C75.6002 45.5332 76.0002 46.1343 76.3002 46.7354H72.7002C72.4002 46.2344 72.0002 45.6333 71.6002 45.1324C71.2002 44.5313 70.7002 44.0304 70.2002 43.4293C69.7002 42.9284 69.2002 42.4275 68.7002 41.9266C68.2002 41.4257 67.7002 41.0249 67.3002 40.7244V46.7354H64.2002V33.2107H67.3002V38.6206H67.2002Z" fill="#6EE0D7"></path> <path d="M88.3001 35.8154H84.0001V46.6352H80.9001V35.8154H76.6001V33.2107H88.4001V35.8154H88.3001Z" fill="#6EE0D7"></path> <path d="M102.5 39.9237C102.5 40.9255 102.4 41.9273 102.1 42.7288C101.8 43.6304 101.5 44.3317 101 44.9328C100.5 45.5339 99.9 46.0348 99.1 46.3353C98.4 46.6359 97.5 46.8363 96.6 46.8363C96 46.8363 95.4 46.7361 94.9 46.6359C94.4 46.4355 93.9 46.3353 93.6 46.135V51.3445H90.5V33.6122C91.1 33.4118 91.9 33.3116 92.8 33.1113C93.7 32.9109 94.7 32.9109 95.7 32.9109C96.8 32.9109 97.7 33.1113 98.6 33.4118C99.4 33.7123 100.2 34.2133 100.7 34.8144C101.3 35.4154 101.7 36.1167 102.1 37.0184C102.3 37.92 102.5 38.9218 102.5 39.9237ZM99.3 40.0238C99.3 38.6213 99 37.5193 98.4 36.818C97.8 36.0165 96.8 35.6158 95.4 35.6158C95.1 35.6158 94.8 35.6158 94.5 35.6158C94.2 35.6158 93.9 35.716 93.6 35.8162V43.5302C93.9 43.7306 94.2 43.931 94.7 44.0311C95.2 44.2315 95.6 44.2315 96.2 44.2315C97.3 44.2315 98.2 43.8308 98.7 43.0293C99 42.328 99.3 41.3262 99.3 40.0238Z" fill="#6EE0D7"></path> <path d="M117.6 39.9236C117.6 41.0257 117.4 41.9273 117.1 42.8289C116.8 43.7306 116.4 44.4318 115.8 45.0329C115.2 45.634 114.6 46.1349 113.8 46.4355C113 46.736 112.1 46.9364 111.2 46.9364C110.2 46.9364 109.4 46.736 108.6 46.4355C107.8 46.1349 107.1 45.634 106.6 45.0329C106.1 44.4318 105.6 43.6304 105.3 42.8289C105 41.9273 104.8 41.0257 104.8 39.9236C104.8 38.8216 105 37.92 105.3 37.0184C105.6 36.1167 106.1 35.4154 106.6 34.8143C107.2 34.2133 107.9 33.7123 108.6 33.4118C109.4 33.1113 110.3 32.9109 111.2 32.9109C112.1 32.9109 113 33.1113 113.8 33.4118C114.6 33.7123 115.3 34.2133 115.8 34.8143C116.4 35.4154 116.8 36.2169 117.1 37.0184C117.4 37.92 117.6 38.9218 117.6 39.9236ZM114.4 39.9236C114.4 38.6213 114.1 37.5193 113.5 36.7178C112.9 35.9164 112.1 35.5156 111.1 35.5156C110.1 35.5156 109.3 35.9164 108.7 36.7178C108.1 37.5193 107.8 38.5211 107.8 39.9236C107.8 41.3262 108.1 42.328 108.7 43.1295C109.3 43.9309 110.1 44.3317 111.1 44.3317C112.1 44.3317 112.9 43.9309 113.5 43.1295C114.1 42.328 114.4 41.3262 114.4 39.9236Z" fill="#6EE0D7"></path> <path d="M131.8 46.6352H128.7V41.0249H123.6V46.6352H120.5V33.2107H123.6V38.4202H128.7V33.2107H131.8V46.6352Z" fill="#6EE0D7"></path> <path d="M147.3 33.2107V46.6352H144.2C144.2 45.6333 144.2 44.7317 144.2 43.7299C144.2 42.728 144.2 41.9266 144.2 41.0249C144.2 40.2235 144.2 39.5222 144.2 38.9211C144.2 38.32 144.2 37.8191 144.2 37.6187C143.7 38.32 143.2 39.0213 142.6 39.8227C142.1 40.6242 141.5 41.4257 141 42.2271C140.5 43.0286 140 43.8301 139.5 44.6315C139 45.433 138.6 46.1343 138.2 46.7354H135.5V33.2107H138.6C138.6 34.2125 138.6 35.1142 138.6 36.0158C138.6 36.9175 138.6 37.7189 138.6 38.5204C138.6 39.2217 138.6 39.9229 138.6 40.4238C138.6 40.9248 138.6 41.4257 138.6 41.7262C139.1 41.0249 139.6 40.2235 140.1 39.422C140.6 38.6206 141.1 37.9193 141.7 37.1178C142.2 36.4165 142.7 35.6151 143.3 35.014C143.8 34.3127 144.3 33.7116 144.8 33.2107H147.3Z" fill="#6EE0D7"></path> <path d="M154.1 38.6206C154.5 38.2198 154.9 37.8191 155.4 37.3182C155.9 36.8173 156.3 36.3164 156.8 35.8154C157.3 35.3145 157.7 34.8136 158.1 34.4129C158.5 33.912 158.9 33.6114 159.1 33.2107H162.7C162.3 33.6114 161.9 34.1123 161.4 34.7134C160.9 35.2143 160.4 35.8154 159.9 36.3164C159.4 36.9174 158.9 37.4184 158.4 37.9193C157.9 38.4202 157.4 38.9211 157 39.3218C157.5 39.7226 158.1 40.3237 158.7 40.9248C159.3 41.5259 159.8 42.1269 160.4 42.8282C161 43.5295 161.5 44.1306 162 44.8319C162.5 45.5332 162.9 46.1343 163.2 46.7354H159.6C159.3 46.2344 158.9 45.6333 158.5 45.1324C158.1 44.5313 157.6 44.0304 157.1 43.4293C156.6 42.9284 156.1 42.4275 155.6 41.9266C155.1 41.4257 154.6 41.0249 154.2 40.7244V46.7354H151V33.2107H154.1V38.6206Z" fill="#6EE0D7"></path> <path d="M169.6 32.9109C170.6 32.9109 171.5 33.0111 172.2 33.3116C172.9 33.6122 173.5 33.9127 173.9 34.4136C174.3 34.9145 174.6 35.4154 174.8 36.1167C175 36.818 175.1 37.5193 175.1 38.3207V46.4355C174.6 46.5357 173.9 46.6359 172.9 46.8362C171.9 46.9364 170.8 47.0366 169.6 47.0366C168.8 47.0366 168.1 46.9364 167.4 46.8362C166.7 46.6359 166.2 46.4355 165.7 46.135C165.2 45.8344 164.9 45.3335 164.6 44.8326C164.3 44.3317 164.2 43.6304 164.2 42.8289C164.2 42.0275 164.3 41.4264 164.6 40.8253C164.9 40.3244 165.3 39.8235 165.8 39.5229C166.3 39.2224 166.9 38.9218 167.6 38.8216C168.3 38.7215 169 38.6213 169.7 38.6213C170 38.6213 170.4 38.6213 170.8 38.7215C171.2 38.7215 171.6 38.8216 172 38.9218V38.2205C172 37.8198 172 37.5193 171.9 37.2187C171.8 36.9182 171.7 36.6176 171.5 36.3171C171.3 36.1167 171 35.9164 170.7 35.716C170.3 35.6158 169.9 35.5156 169.4 35.5156C168.7 35.5156 168 35.6158 167.4 35.716C166.8 35.8162 166.3 35.9164 165.9 36.1167L165.5 33.6122C165.9 33.512 166.5 33.3116 167.2 33.2114C167.9 32.9109 168.7 32.9109 169.6 32.9109ZM169.8 44.532C170.8 44.532 171.5 44.4319 172 44.3317V40.9255C171.8 40.8253 171.6 40.8253 171.3 40.7251C171 40.6249 170.6 40.6249 170.2 40.6249C169.9 40.6249 169.5 40.6249 169.2 40.7251C168.8 40.8253 168.5 40.8253 168.2 41.0257C167.9 41.1258 167.7 41.3262 167.5 41.6267C167.3 41.8271 167.2 42.2278 167.2 42.5284C167.2 43.2297 167.4 43.7306 167.9 44.0311C168.4 44.3317 169 44.532 169.8 44.532Z" fill="#6EE0D7"></path> <path d="M41.5 7.66504C39.8 7.66504 38.3 8.26613 37 9.16777L22.9 0.151367L13.3 6.86358V0.151367H8.8V9.86905H8.9L0 16.0803V46.8363H4.5V18.4847L23 5.56121L34.4 12.9747C34.2 13.5758 34.1 14.2771 34.1 14.9783C34.1 18.9856 37.4 22.2916 41.4 22.2916C45.4 22.2916 48.7 18.9856 48.7 14.9783C48.7 10.9711 45.5 7.66504 41.5 7.66504ZM41.5 18.2844C39.9 18.2844 38.5 17.0822 38.3 15.4793C38.3 15.3791 38.3 15.1787 38.3 15.0785C38.3 13.4756 39.5 12.0731 41 11.8727C41.2 11.8727 41.3 11.8727 41.5 11.8727C43.3 11.8727 44.7 13.3754 44.7 15.0785C44.7 16.7816 43.3 18.2844 41.5 18.2844ZM22.8 10.8709L26.9 13.5758L13.3 22.9929V46.8363H8.8V20.5886L22.8 10.8709Z" fill="#6EE0D7"></path> <path d="M72.2 17.1806C71.6 18.5832 70.9 19.7854 70.2 20.7872C69.5 21.6888 68.8 22.4903 68 22.9912C67.3 23.4921 66.4999 23.8928 65.6999 24.0932C64.8999 24.2936 64.2 24.3937 63.4 24.3937C62.7 24.3937 61.8999 24.2936 61.0999 24.1934C60.2999 24.0932 59.6 23.8928 58.9 23.5923L59.8 19.4848C60.9 19.8855 62 20.0859 63 20.0859C63.7 20.0859 64.3 19.8855 65 19.585C65.6 19.2844 66.2 18.5832 66.8 17.5813C65.9 16.1788 64.9999 14.7762 64.1999 13.2735C63.3999 11.7708 62.6 10.3682 61.9 8.86549C61.2 7.46294 60.5 6.06038 59.9 4.75801C59.3 3.45564 58.7 2.25346 58.2 1.15145H63.9C64.3 2.05309 64.6 2.95473 65.1 3.85637C65.5 4.8582 66 5.86002 66.5 6.86184C67 7.86367 67.5 8.96567 68 9.96749C68.5 10.9693 69 12.0713 69.4 12.973C70.1 11.0695 70.8 9.06585 71.4 7.06221C72 5.05856 72.7 3.05492 73.2 1.05127H78.7C78.1 2.75437 77.6 4.35729 77 5.75984C76.4 7.26257 75.9 8.66512 75.4 9.96749C74.9 11.2699 74.3 12.5722 73.8 13.6742C73.2 14.8764 72.7 16.0786 72.2 17.1806Z" fill="#6EE0D7"></path> <path d="M86.9 1.05127C87.3 1.75255 87.8 2.65419 88.3 3.75619C88.8 4.8582 89.4 5.9602 89.9 7.16239C90.5 8.36458 91 9.66695 91.6 10.9693C92.1 12.2717 92.7 13.4739 93.1 14.5759C93.6 13.4739 94.1 12.1715 94.6 10.9693C95.1 9.66695 95.7 8.36458 96.3 7.16239C96.9 5.9602 97.4 4.75801 97.9 3.75619C98.4 2.65419 98.9 1.75255 99.3 1.05127H104C104.2 2.554 104.4 4.2571 104.6 6.16057C104.8 8.06403 105 9.96749 105.1 11.9711C105.2 13.9748 105.4 16.0786 105.5 18.0823C105.6 20.0859 105.7 22.0896 105.8 23.7926H100.8C100.7 21.5886 100.6 19.1843 100.5 16.5795C100.4 13.9748 100.2 11.37 100 8.66512C99.6 9.56676 99.2 10.5686 98.7 11.7708C98.2 12.973 97.7 13.9748 97.3 15.177C96.9 16.3792 96.4 17.381 95.9 18.3828C95.5 19.3846 95.1 20.2863 94.8 20.9875H91.2C90.9 20.2863 90.5 19.3846 90.1 18.3828C89.7 17.381 89.2 16.279 88.7 15.177C88.2 14.075 87.7 12.973 87.3 11.7708C86.8 10.6688 86.4 9.66695 86 8.66512C85.8 11.37 85.6 13.9748 85.5 16.5795C85.4 19.1843 85.3 21.5886 85.2 23.7926H80.2C80.3 21.9894 80.4 20.0859 80.5 18.0823C80.6 16.0786 80.8 13.9748 80.9 11.9711C81 9.96749 81.2 7.96385 81.4 6.16057C81.6 4.2571 81.8 2.554 82 1.05127H86.9Z" fill="#6EE0D7"></path> <path d="M123.7 1.05127H128.8V23.8928H123.7V14.1751H115.1V23.8928H110V1.05127H115.1V9.76713H123.7V1.05127Z" fill="#6EE0D7"></path> <path d="M149.1 23.8927C148.8 23.0913 148.6 22.2898 148.3 21.4884C148 20.6869 147.7 19.7853 147.4 18.9838H138.5C138.2 19.7853 137.9 20.6869 137.6 21.4884C137.3 22.2898 137 23.0913 136.8 23.8927H131.5C132.4 21.3882 133.2 19.1842 133.9 17.0803C134.7 14.9765 135.4 13.0731 136.2 11.1696C137 9.26613 137.7 7.56303 138.4 5.96012C139.1 4.25702 139.9 2.6541 140.6 1.15137H145.5C146.2 2.75428 147 4.3572 147.7 5.96012C148.4 7.66322 149.2 9.36631 149.9 11.1696C150.6 12.9729 151.4 14.9765 152.2 17.0803C153 19.1842 153.8 21.3882 154.6 23.8927H149.1ZM142.9 6.26066C142.8 6.56121 142.6 7.06212 142.4 7.56303C142.2 8.16413 141.9 8.76522 141.6 9.56668C141.3 10.268 141 11.1696 140.7 12.0712C140.4 12.9729 140 13.8745 139.6 14.8763H146.1C145.8 13.8745 145.4 12.9729 145.1 12.0712C144.8 11.1696 144.5 10.3681 144.2 9.56668C143.9 8.8654 143.6 8.16413 143.4 7.56303C143.2 6.96194 143 6.56121 142.9 6.26066Z" fill="#6EE0D7"></path> <path d="M167.6 0.851318C168.5 0.851318 169.6 0.951501 170.8 1.05168C172 1.15187 173.3 1.35223 174.5 1.65278V23.9934H169.4V15.7785H167.8C167.5 15.7785 167.2 15.7785 167 15.7785C166.7 15.7785 166.4 15.7785 166 15.6783C165.3 16.6801 164.5 17.8823 163.6 19.3851C162.7 20.8878 161.9 22.3905 161.2 23.8933H155.8C156.2 22.9916 156.6 22.09 157.1 21.1883C157.5 20.2867 158 19.4852 158.5 18.6838C159 17.8823 159.4 17.181 159.8 16.4798C160.2 15.7785 160.6 15.1774 161 14.6765C160.5 14.4761 160 14.1756 159.6 13.7748C159.1 13.3741 158.7 12.9734 158.3 12.4725C157.9 11.9716 157.6 11.3705 157.4 10.6692C157.2 9.96791 157.1 9.16645 157.1 8.26481C157.1 7.06262 157.3 5.96062 157.8 4.95879C158.3 4.05715 159 3.25569 159.9 2.55442C160.8 1.95332 161.9 1.45241 163.2 1.15187C164.5 0.951501 166 0.851318 167.6 0.851318ZM167.4 5.25934C166.7 5.25934 166.1 5.25934 165.5 5.35952C164.9 5.45971 164.4 5.66007 163.9 5.86044C163.4 6.0608 163.1 6.36135 162.8 6.86226C162.5 7.26299 162.4 7.7639 162.4 8.36499C162.4 9.56718 162.8 10.3686 163.6 10.7694C164.4 11.1701 165.6 11.4706 167.3 11.4706H169.4V5.25934C169.1 5.25934 168.9 5.25934 168.5 5.25934C168.1 5.25934 167.9 5.25934 167.4 5.25934Z" fill="#6EE0D7"></path> </svg> 