<?xml version="1.0" encoding="UTF-8"?> <!-- Generator: Adobe Illustrator 24.3.0, SVG Export Plug-In . SVG Version: 6.00 Build 0) --> <svg xmlns="http://www.w3.org/2000/svg" xmlns:xlink="http://www.w3.org/1999/xlink" id="Слой_1" x="0px" y="0px" viewBox="0 0 166 88" style="enable-background:new 0 0 166 88;" xml:space="preserve"> <style type="text/css"> .st0{fill:#009AA0;} </style> <path class="st0" d="M34,24c-3.3-1.8-7.1-2.9-11.1-2.9C10.2,21.1,0,31.3,0,44s10.2,22.9,22.9,22.9S45.7,56.6,45.7,44 c0-4.1-1.1-7.9-2.9-11.2l-2.5,1.4c1.7,3,2.7,6.5,2.7,10.2c0,11.4-9.3,20.7-20.7,20.7S1.5,55.8,1.5,44.4s9.3-20.7,20.7-20.7 c3.8,0,7.3,1,10.4,2.8l-1.6,2.9l8.1-0.2l-4.2-6.9L34,24"></path> <path class="st0" d="M113.2,48.1V34.2h-3.5v19.4h3.2l9.3-13.9v13.9h3.5V34.2h-3.2L113.2,48.1z"></path> <path class="st0" d="M68.2,42.1h-7.9v-7.9h-3.1v19.4h3.1v-8.6h7.9v8.6h3.1V34.2h-3.1V42.1z"></path> <path class="st0" d="M93.1,34.2v19.4h3.5V37.2h7v16.5h3.5V34.2H93.1z"></path> <path class="st0" d="M138.8,37.2l0.5-3h-10.7v19.4h3.5V37.2H138.8z"></path> <path class="st0" d="M165.7,46.8c-0.1-0.4-0.2-0.9-0.4-1.3c-0.2-0.4-0.5-0.8-0.8-1.2c-0.3-0.3-0.7-0.7-1.1-0.9 c0.7-0.5,1.2-1.2,1.5-1.8c0.3-0.7,0.4-1.4,0.4-2.2c0-0.6-0.1-1.3-0.3-1.9c-0.2-0.7-0.6-1.3-1-1.8c-0.5-0.5-1.1-1-1.8-1.3 c-0.7-0.3-1.6-0.5-2.6-0.5c-1,0-1.9,0.2-2.7,0.5s-1.4,0.7-1.9,1.2c-0.5,0.5-0.9,1.1-1.1,1.7c-0.2,0.6-0.3,1.3-0.3,2v0.9h3.2v-0.6 c0-0.4,0.1-0.9,0.1-1.2c0.1-0.3,0.2-0.6,0.4-0.9c0.2-0.2,0.5-0.4,0.8-0.5c0.4-0.1,0.8-0.2,1.4-0.2c0.4,0,0.8,0.1,1.1,0.2 c0.3,0.1,0.6,0.3,0.8,0.6c0.2,0.2,0.4,0.5,0.4,0.8c0.1,0.3,0.1,0.6,0.1,1c0,0.4-0.1,0.8-0.2,1.1c-0.1,0.3-0.3,0.6-0.5,0.9 c-0.2,0.2-0.5,0.4-0.8,0.6c-0.4,0.1-0.8,0.2-1.3,0.2h-2.1v2.9h2.1c0.6,0,1.1,0.1,1.5,0.2c0.4,0.2,0.7,0.4,1,0.7 c0.3,0.3,0.5,0.6,0.6,1c0.1,0.4,0.2,0.8,0.2,1.2c0,0.8-0.3,1.5-0.8,2.1c-0.5,0.6-1.3,0.8-2.4,0.8c-0.2,0-0.5,0-0.7-0.1 c-0.3-0.1-0.5-0.2-0.8-0.3c-0.2-0.1-0.5-0.2-0.7-0.4c-0.2-0.1-0.4-0.3-0.5-0.4c-0.3-0.4-0.6-0.8-0.6-1.2c-0.1-0.4-0.1-0.9-0.1-1.4 v-0.5l-3.2-0.3v0.7c0,0.8,0.1,1.6,0.3,2.3c0.2,0.8,0.6,1.5,1.2,2.2c0.3,0.3,0.6,0.6,1,0.9c0.4,0.3,0.8,0.5,1.2,0.7 c0.4,0.2,0.9,0.4,1.4,0.5c0.5,0.1,1,0.2,1.6,0.2c1.1,0,2.1-0.2,2.9-0.5c0.8-0.4,1.5-0.8,2-1.4c0.5-0.6,0.9-1.2,1.2-1.9 c0.3-0.7,0.4-1.4,0.4-2.1C165.8,47.7,165.8,47.2,165.7,46.8L165.7,46.8L165.7,46.8z"></path> <path class="st0" d="M143,34.2l-7.4,19.4h3.2l2.3-6h6.4l2.3,6h3.2l-7.4-19.4H143z M142.3,44.7l2.1-5.5l2.1,5.5H142.3L142.3,44.7z"></path> <path class="st0" d="M77.6,48.1V34.2h-3.5v19.4h3.2l9.3-13.9v13.9h3.5V34.2h-3.2L77.6,48.1z"></path> <path class="st0" d="M22.2,45.2c0.1-0.2,0.2-0.4,0.2-0.6c0.1-0.1,0.1-0.3,0.2-0.4c0,0,0,0,0,0c0-0.1-0.1-0.2-0.1-0.3c0,0,0,0,0,0 c0-0.1-0.1-0.2-0.1-0.3c0,0,0-0.1,0-0.1c0-0.1-0.1-0.2-0.1-0.3c0,0,0-0.1,0-0.1c-0.1-0.1-0.1-0.2-0.2-0.3c0,0,0,0,0,0 c0,0.1-0.1,0.1-0.1,0.2c0,0.1,0,0.1-0.1,0.2c0,0.1-0.1,0.2-0.1,0.4c0,0.1,0,0.1-0.1,0.2c0,0.1-0.1,0.3-0.1,0.4c0,0,0,0.1,0,0.1 c-0.1,0.2-0.1,0.4-0.1,0.5c0.1,0.1,0.1,0.2,0.2,0.3c0,0,0,0.1,0,0.1c0,0.1,0.1,0.2,0.1,0.3c0,0,0,0.1,0.1,0.1c0,0.1,0.1,0.2,0.1,0.2 c0,0,0,0.1,0.1,0.1c0,0,0,0.1,0,0.1c0,0,0,0,0-0.1c0.1-0.2,0.1-0.4,0.2-0.6C22.2,45.3,22.2,45.2,22.2,45.2L22.2,45.2z"></path> <path class="st0" d="M20.5,40.5c0,0.1-0.1,0.3-0.1,0.4c0,0.1,0,0.2-0.1,0.2c0,0.2-0.1,0.3-0.1,0.5c0,0.1,0,0.1,0,0.1 c0,0.2-0.1,0.4-0.1,0.6c0.2,0.4,0.4,0.7,0.6,1.1c0.1,0.1,0.1,0.2,0.2,0.3c0.1,0.2,0.2,0.4,0.3,0.6c0-0.1,0-0.1,0.1-0.2 c0-0.1,0-0.2,0.1-0.2c0-0.1,0.1-0.2,0.1-0.3c0-0.1,0-0.1,0.1-0.2c0-0.1,0.1-0.3,0.1-0.4c0-0.1,0-0.1,0.1-0.1 c0.1-0.2,0.1-0.4,0.2-0.5c-0.1-0.2-0.2-0.4-0.3-0.6c0,0,0-0.1-0.1-0.1c-0.1-0.2-0.2-0.3-0.3-0.5l-0.1-0.2c-0.1-0.1-0.1-0.3-0.2-0.4 c0-0.1-0.1-0.2-0.1-0.3c0-0.1-0.1-0.2-0.1-0.3c0,0.1-0.1,0.2-0.1,0.3C20.5,40.3,20.5,40.4,20.5,40.5L20.5,40.5L20.5,40.5z"></path> <path class="st0" d="M20.9,50.4c0-0.1,0-0.1,0-0.2c0-0.1,0-0.3,0.1-0.4c0-0.1,0-0.1,0-0.2c0-0.2,0.1-0.4,0.1-0.6c0,0,0-0.1,0-0.1 c0-0.2,0.1-0.3,0.1-0.5c0-0.1,0-0.1,0.1-0.2c0-0.1,0.1-0.3,0.1-0.4c0-0.1,0-0.2,0.1-0.2c0-0.1,0.1-0.3,0.1-0.4c0-0.1,0-0.1,0.1-0.2 c0.1-0.2,0.1-0.4,0.2-0.6c0,0,0-0.1,0-0.1c0,0,0,0,0-0.1c-0.1-0.1-0.1-0.3-0.2-0.4c0,0,0-0.1-0.1-0.1c-0.1-0.2-0.2-0.3-0.3-0.5 c0,0,0,0,0-0.1c0,0,0,0.1,0,0.1c0,0.2-0.1,0.3-0.1,0.5c0,0.1,0,0.2-0.1,0.2c0,0.2-0.1,0.4-0.1,0.6c0,0,0,0.1,0,0.1 c0,0.2-0.1,0.5-0.1,0.7c0,0.1,0,0.1,0,0.2c0,0.2-0.1,0.3-0.1,0.5c0,0.1,0,0.2,0,0.2c0,0.2,0,0.3-0.1,0.5c0,0.1,0,0.1,0,0.2 c0,0.2,0,0.4-0.1,0.7c0,0.2,0,0.4,0,0.7c0,0.1,0,0.1,0,0.2c0,0.2,0,0.3,0,0.5c0,0.1,0,0.1,0,0.2c0,0.2,0,0.3,0,0.5v0.2 c0,0.2,0,0.4,0,0.6c0,0,0,0.1,0,0.1c0,0.2,0,0.3,0,0.5c0,0.1,0,0.1,0,0.2c0,0.1,0,0.3,0,0.4c0,0.1,0,0.1,0,0.2c0,0.1,0,0.3,0,0.4 c0,0,0,0.1,0,0.1c0,0.2,0,0.4,0.1,0.5c0,0,0,0.1,0,0.1c0,0.1,0,0.3,0.1,0.4c0,0.1,0,0.1,0,0.2c0,0.1,0,0.2,0.1,0.4c0,0,0,0.1,0,0.1 c0,0,0-0.1,0-0.1c0-0.1,0-0.2,0-0.3c0-0.1,0-0.1,0-0.2c0-0.1,0-0.2,0-0.4c0,0,0-0.1,0-0.1c0-0.2,0-0.3,0-0.5c0-0.1,0-0.1,0-0.2 c0-0.1,0-0.2,0-0.3c0-0.1,0-0.1,0-0.2c0-0.1,0-0.2,0-0.3v-0.2c0-0.1,0-0.2,0-0.4c0-0.1,0-0.1,0-0.2c0-0.2,0-0.4,0-0.5c0,0,0,0,0-0.1 c0-0.2,0-0.3,0-0.5c0-0.1,0-0.1,0-0.2c0-0.1,0-0.3,0-0.4c0-0.1,0-0.1,0-0.2C20.9,50.7,20.9,50.5,20.9,50.4L20.9,50.4L20.9,50.4z"></path> <path class="st0" d="M22,42.4c0.1,0.3,0.2,0.5,0.4,0.8c0,0,0,0,0,0c0.1,0.1,0.1,0.2,0.2,0.3c0,0,0,0,0,0c0,0.1,0.1,0.2,0.1,0.3 c0,0,0,0,0,0c0,0,0,0,0-0.1c0.1-0.2,0.2-0.5,0.3-0.7c0,0,0-0.1,0-0.1c0.1-0.2,0.2-0.4,0.3-0.6c0,0,0,0,0-0.1c0,0,0,0,0,0 c-0.1-0.2-0.2-0.5-0.3-0.7c0,0,0-0.1,0-0.1c-0.1-0.2-0.2-0.5-0.3-0.7c0,0,0,0,0-0.1c0,0,0,0,0,0.1c-0.1,0.2-0.2,0.5-0.3,0.7 c0,0,0,0.1,0,0.1C22.2,41.9,22.1,42.1,22,42.4C22,42.4,22,42.4,22,42.4z"></path> <path class="st0" d="M23.9,44c0-0.1-0.1-0.3-0.1-0.4c0-0.1,0-0.1-0.1-0.2c0-0.1-0.1-0.2-0.1-0.4c0-0.1,0-0.1-0.1-0.2 c0-0.1-0.1-0.1-0.1-0.2c0,0,0,0,0,0.1c-0.1,0.2-0.2,0.4-0.3,0.7c0,0,0,0.1,0,0.1c-0.1,0.2-0.2,0.4-0.3,0.7c0,0,0,0,0,0 c0.1,0.2,0.2,0.4,0.2,0.6c0,0.1,0.1,0.2,0.1,0.3c0,0,0,0.1,0,0.1c0,0.1,0.1,0.2,0.1,0.2c0,0,0,0.1,0,0.1c0,0.1,0.1,0.1,0.1,0.2 c0,0,0,0.1,0,0.1c0,0,0,0.1,0,0.1c0,0,0,0,0-0.1c0-0.1,0-0.1,0.1-0.1c0-0.1,0.1-0.1,0.1-0.2l0.1-0.1c0-0.1,0.1-0.2,0.1-0.3 c0,0,0-0.1,0-0.1c0.1-0.1,0.1-0.2,0.2-0.4c0-0.2-0.1-0.3-0.1-0.5C23.9,44.1,23.9,44,23.9,44L23.9,44L23.9,44z"></path> <path class="st0" d="M25,50.6c0-0.2,0-0.5,0-0.7c0,0,0-0.1,0-0.1c0-0.2,0-0.4-0.1-0.7c0-0.1,0-0.2,0-0.2c0-0.2,0-0.3-0.1-0.5 c0-0.1,0-0.2,0-0.3c0-0.2,0-0.3-0.1-0.5c0-0.1,0-0.2-0.1-0.3c0-0.2-0.1-0.3-0.1-0.5c0-0.1,0-0.2-0.1-0.3c0-0.2-0.1-0.3-0.1-0.5 c0-0.1-0.1-0.2-0.1-0.3c0-0.2-0.1-0.3-0.1-0.5c0-0.1,0-0.1-0.1-0.2c0,0,0,0.1,0,0.1c0,0.1-0.1,0.1-0.1,0.2c0,0.1-0.1,0.1-0.1,0.2 c0,0.1-0.1,0.1-0.1,0.2c0,0.1-0.1,0.2-0.1,0.3c0,0,0,0.1,0,0.1c-0.1,0.1-0.1,0.2-0.2,0.3c0,0.1,0.1,0.2,0.1,0.3 c0,0.1,0.1,0.3,0.1,0.4c0,0.1,0.1,0.2,0.1,0.3c0,0.1,0.1,0.3,0.1,0.4c0,0.1,0.1,0.2,0.1,0.3c0,0.1,0.1,0.3,0.1,0.4 c0,0.1,0,0.2,0.1,0.3c0,0.1,0.1,0.3,0.1,0.4c0,0.1,0,0.2,0.1,0.3c0,0.1,0.1,0.3,0.1,0.4c0,0.1,0,0.2,0,0.3c0,0.1,0,0.3,0.1,0.4 c0,0.1,0,0.2,0,0.3c0,0.1,0,0.3,0,0.4c0,0.1,0,0.2,0,0.3c0,0.1,0,0.3,0,0.4c0,0.1,0,0.2,0,0.3c0,0.1,0,0.2,0,0.4c0,0.1,0,0.2,0,0.3 c0,0.1,0,0.2,0,0.3v0.3c0,0.1,0,0.2,0,0.3c0,0.1,0,0.2,0,0.3c0,0.1,0,0.2,0,0.3c0,0.1,0,0.2,0,0.3c0,0.1,0,0.2,0,0.3 c0,0.1,0,0.2,0,0.3c0,0.1,0,0.2,0,0.3c0,0.1,0,0.2,0,0.3c0,0.1,0,0.2,0,0.3c0,0.1,0,0.2,0,0.2c0,0.1,0,0.2,0,0.3c0,0,0,0,0,0v0 c0-0.2,0.1-0.4,0.1-0.5c0,0,0-0.1,0-0.1c0-0.1,0.1-0.3,0.1-0.4c0-0.1,0-0.1,0-0.2c0-0.1,0-0.3,0.1-0.4c0-0.1,0-0.2,0-0.2 c0-0.1,0-0.2,0-0.4c0-0.1,0-0.2,0-0.2c0-0.1,0-0.2,0-0.4c0-0.1,0-0.2,0-0.3c0-0.1,0-0.3,0-0.4c0-0.1,0-0.2,0-0.3c0-0.1,0-0.3,0-0.4 c0-0.1,0-0.2,0-0.3c0-0.1,0-0.3,0-0.4c0-0.1,0-0.2,0-0.2c0-0.2,0-0.4,0-0.5C25,50.7,25,50.7,25,50.6L25,50.6L25,50.6z"></path> <path class="st0" d="M25.3,42.8c0,0.1-0.1,0.1-0.1,0.2c-0.1,0.1-0.1,0.3-0.2,0.4c0,0.1-0.1,0.1-0.1,0.2c-0.1,0.2-0.2,0.3-0.2,0.5 c0,0,0,0.1-0.1,0.1c-0.1,0.2-0.2,0.4-0.3,0.6c0.1,0.2,0.1,0.5,0.2,0.7c0,0.1,0,0.1,0,0.2c0.1,0.2,0.1,0.4,0.2,0.7c0,0,0,0,0,0 c0.1,0.2,0.1,0.5,0.1,0.7c0,0.1,0,0.1,0,0.2c0,0.2,0.1,0.4,0.1,0.6c0,0,0,0,0,0c0,0.2,0.1,0.4,0.1,0.7c0,0.1,0,0.1,0,0.2 c0,0.2,0,0.4,0.1,0.6c0,0,0,0,0,0c0,0.2,0,0.4,0,0.6c0,0.1,0,0.1,0,0.2c0,0.2,0,0.4,0,0.6v0c0,0.2,0,0.4,0,0.6v0.2 c0,0.2,0,0.4,0,0.6v0c0,0.2,0,0.4,0,0.5c0,0.1,0,0.1,0,0.2c0,0.2,0,0.4,0,0.5c0,0,0,0,0,0.1c0,0.2,0,0.3,0,0.5c0,0,0,0.1,0,0.1 c0,0.2,0,0.3-0.1,0.5c0,0,0,0,0,0.1c0,0.2,0,0.3-0.1,0.5c0,0,0,0.1,0,0.1c0,0.2-0.1,0.3-0.1,0.5c0,0,0,0,0,0.1 c0,0.1-0.1,0.3-0.1,0.4c0,0,0,0.1,0,0.1c0,0.2-0.1,0.3-0.1,0.5c0,0,0,0,0,0c0,0.1-0.1,0.3-0.1,0.4c0,0,0,0.1,0,0.1 c0,0.1-0.1,0.3-0.1,0.4c0,0,0,0,0,0c0,0.1-0.1,0.3-0.1,0.4c0,0,0,0.1,0,0.1c0,0,0,0,0,0.1c0,0,0-0.1,0-0.1c0,0,0-0.1,0-0.1 c0-0.1,0.1-0.3,0.1-0.4c0,0,0,0,0,0c0.1-0.1,0.1-0.3,0.1-0.4c0,0,0-0.1,0-0.1c0-0.1,0.1-0.3,0.1-0.4c0,0,0-0.1,0-0.1 c0-0.2,0.1-0.3,0.1-0.5c0,0,0-0.1,0-0.1c0-0.1,0.1-0.3,0.1-0.4c0,0,0-0.1,0-0.1c0-0.2,0.1-0.3,0.1-0.5c0,0,0-0.1,0-0.1 c0-0.1,0.1-0.3,0.1-0.4c0-0.1,0-0.1,0-0.2c0-0.2,0.1-0.4,0.1-0.6c0,0,0-0.1,0-0.1c0-0.2,0.1-0.3,0.1-0.5c0-0.1,0-0.1,0-0.2 c0-0.2,0.1-0.4,0.1-0.6c0,0,0,0,0,0c0-0.2,0.1-0.4,0.1-0.6c0-0.1,0-0.1,0-0.2c0-0.2,0-0.4,0.1-0.6c0,0,0-0.1,0-0.1 c0-0.2,0-0.4,0-0.7c0-0.1,0-0.1,0-0.2c0-0.2,0-0.4,0-0.6c0-0.1,0-0.1,0-0.1c0-0.2,0-0.5,0-0.7v-0.2c0-0.2,0-0.4,0-0.6 c0-0.1,0-0.1,0-0.2c0-0.2,0-0.5,0-0.7c0,0,0-0.1,0-0.1c0-0.2,0-0.4,0-0.6c0-0.1,0-0.1,0-0.2c0-0.3-0.1-0.5-0.1-0.8c0,0,0-0.1,0-0.1 c0-0.2-0.1-0.5-0.1-0.7c0-0.1,0-0.1,0-0.2c0-0.3-0.1-0.5-0.1-0.8c0,0,0,0,0,0c0-0.2-0.1-0.4-0.1-0.6C25.4,42.7,25.3,42.7,25.3,42.8 L25.3,42.8z"></path> <path class="st0" d="M24.2,56.9c0-0.1,0-0.2,0.1-0.4c0,0,0,0,0-0.1c0-0.1,0-0.3,0.1-0.4c0,0,0-0.1,0-0.1c0-0.1,0-0.2,0-0.4 c0,0,0-0.1,0-0.1c0-0.2,0-0.3,0-0.5c0,0,0-0.1,0-0.1c0-0.1,0-0.3,0-0.4c0-0.1,0-0.1,0-0.2c0-0.2,0-0.3,0-0.5v-0.1c0-0.2,0-0.3,0-0.5 V53c0-0.1,0-0.3,0-0.4c0,0,0-0.1,0-0.1c0-0.2,0-0.4,0-0.6c0,0,0-0.1,0-0.1c0-0.2,0-0.3,0-0.5c0-0.1,0-0.1,0-0.2c0-0.2,0-0.4-0.1-0.6 c0,0,0,0,0,0c0-0.2-0.1-0.4-0.1-0.6c0-0.1,0-0.1,0-0.2c0-0.2-0.1-0.3-0.1-0.5c0,0,0-0.1,0-0.1c0-0.2-0.1-0.4-0.1-0.6 c0-0.1,0-0.1,0-0.1c0-0.2-0.1-0.3-0.1-0.5c0-0.1,0-0.1,0-0.2c-0.1-0.2-0.1-0.4-0.2-0.7c0,0,0,0,0,0c0-0.2-0.1-0.3-0.1-0.5 c-0.1,0.1-0.1,0.3-0.2,0.4c0,0.1-0.1,0.2-0.1,0.2c-0.1,0.2-0.2,0.5-0.3,0.7c0,0.1,0.1,0.2,0.1,0.3c0.1,0.2,0.1,0.3,0.2,0.5 c0,0,0,0.1,0.1,0.1c0.1,0.1,0.1,0.3,0.2,0.4c0,0,0,0.1,0,0.1c0.1,0.2,0.1,0.3,0.2,0.5c0,0,0,0.1,0,0.1c0,0.1,0.1,0.3,0.1,0.4 c0,0,0,0.1,0,0.1c0,0.2,0.1,0.3,0.1,0.5c0,0,0,0.1,0,0.1c0,0.1,0.1,0.3,0.1,0.4c0,0,0,0.1,0,0.1c0,0.2,0.1,0.3,0.1,0.5c0,0,0,0,0,0 c0,0.2,0,0.3,0.1,0.5c0,0,0,0.1,0,0.1c0,0.1,0,0.3,0,0.4c0,0,0,0.1,0,0.1c0,0.2,0,0.3,0,0.5c0,0,0,0.1,0,0.1c0,0.1,0,0.3,0,0.4 c0,0,0,0.1,0,0.1c0,0.2,0,0.3,0,0.5v0c0,0.1,0,0.3,0,0.4c0,0,0,0.1,0,0.1c0,0.1,0,0.3,0,0.4c0,0,0,0,0,0.1c0,0.1,0,0.3,0,0.4 c0,0,0,0.1,0,0.1c0,0.1,0,0.2,0,0.3c0,0,0,0.1,0,0.1c0,0.1,0,0.3-0.1,0.4c0,0,0,0,0,0.1c0,0.1,0,0.2-0.1,0.3c0,0,0,0.1,0,0.1 c0,0.3-0.1,0.5-0.1,0.7c0,0,0,0.1,0,0.1c0,0.1,0,0.2-0.1,0.3c0,0,0,0,0,0c0,0.1-0.1,0.2-0.1,0.3c0,0,0,0,0,0.1c0,0,0,0.1,0,0.1v0 c0,0,0,0,0,0c0-0.1,0.1-0.2,0.1-0.3c0,0,0-0.1,0-0.1c0-0.1,0.1-0.2,0.1-0.3c0,0,0,0,0-0.1c0-0.1,0.1-0.2,0.1-0.3c0,0,0-0.1,0-0.1 c0-0.1,0-0.2,0.1-0.3c0,0,0-0.1,0-0.1c0-0.1,0.1-0.3,0.1-0.4c0,0,0,0,0-0.1c0-0.1,0-0.2,0.1-0.3C24.2,56.9,24.2,56.9,24.2,56.9 L24.2,56.9z"></path> <path class="st0" d="M20.9,57.4c0,0.1,0.1,0.2,0.1,0.3c0,0.1,0,0.1,0.1,0.2c0,0.1,0.1,0.2,0.1,0.3c0,0,0,0.1,0,0.1 c0,0.1,0.1,0.2,0.1,0.4c0,0,0,0.1,0,0.1c0,0.1,0.1,0.2,0.1,0.2c0,0.1,0,0.1,0.1,0.1c0,0.1,0.1,0.1,0.1,0.2c0,0.1,0,0.1,0.1,0.1 c0,0,0,0.1,0,0.1c0,0,0-0.1,0-0.1c0,0,0-0.1,0-0.1c0-0.1,0-0.1-0.1-0.2c0,0,0-0.1,0-0.1c0-0.1,0-0.1-0.1-0.2c0,0,0-0.1,0-0.1 c0-0.1,0-0.1-0.1-0.2c0,0,0-0.1,0-0.1c0-0.1,0-0.1-0.1-0.2c0-0.1,0-0.1,0-0.1c0-0.1,0-0.1-0.1-0.2c0-0.1,0-0.1,0-0.1 c0-0.1,0-0.1-0.1-0.2c0-0.1,0-0.1,0-0.1c0-0.1,0-0.2-0.1-0.2c0,0,0-0.1,0-0.1c0-0.1,0-0.2-0.1-0.3c0,0,0-0.1,0-0.1 c0-0.1-0.1-0.3-0.1-0.4c0,0,0-0.1,0-0.1c0-0.1,0-0.2-0.1-0.3c0-0.1,0-0.1,0-0.2c0-0.1,0-0.2,0-0.3c0-0.1,0-0.1,0-0.2 c0-0.1,0-0.2,0-0.2c0-0.1,0-0.1,0-0.2c0-0.1,0-0.2,0-0.2c0-0.1,0-0.1,0-0.2c0-0.1,0-0.2,0-0.2c0-0.1,0-0.1,0-0.2c0-0.1,0-0.2,0-0.3 c0-0.1,0-0.2,0-0.2c0-0.1,0-0.2,0-0.3c0-0.1,0-0.2,0-0.2c0-0.1,0-0.2,0-0.3c0-0.1,0-0.2,0-0.2c0-0.1,0-0.2,0-0.3c0-0.1,0-0.2,0-0.2 c0-0.1,0-0.2,0-0.3v-0.3c0-0.1,0-0.2,0-0.3c0-0.1,0-0.2,0-0.3c0-0.1,0-0.2,0-0.3c0-0.1,0-0.2,0-0.3c0-0.1,0-0.2,0-0.3 c0-0.1,0-0.2,0-0.3c0-0.1,0-0.2,0-0.3c0-0.1,0-0.2,0-0.3c0-0.1,0-0.2,0-0.3c0-0.1,0-0.2,0-0.3c0-0.1,0-0.2,0-0.3c0-0.1,0-0.2,0-0.3 c0-0.1,0-0.2,0.1-0.3c0-0.1,0-0.2,0-0.3c0-0.1,0-0.2,0.1-0.4c0-0.1,0-0.2,0-0.2c0-0.1,0.1-0.3,0.1-0.4c0-0.1,0-0.1,0-0.2 c0-0.2,0.1-0.4,0.1-0.6c0,0,0-0.1,0-0.1c0-0.2,0.1-0.3,0.1-0.5c-0.2-0.3-0.4-0.7-0.6-1.1c-0.1-0.1-0.1-0.2-0.2-0.3 c-0.1-0.2-0.2-0.4-0.4-0.6c0,0.1,0,0.2-0.1,0.3c0,0.1,0,0.2-0.1,0.3c0,0.2-0.1,0.3-0.1,0.5c0,0.1,0,0.2,0,0.2c0,0.2-0.1,0.5-0.1,0.7 c0,0,0,0.1,0,0.1c0,0.2,0,0.4-0.1,0.6c0,0.1,0,0.2,0,0.2c0,0.2,0,0.3,0,0.5c0,0.1,0,0.2,0,0.3c0,0.1,0,0.3,0,0.4c0,0.1,0,0.2,0,0.3 c0,0.1,0,0.3,0,0.4c0,0.1,0,0.2,0,0.3v0.7c0,0.1,0,0.3,0,0.4c0,0.1,0,0.2,0,0.2c0,0.2,0,0.3,0,0.5c0,0,0,0.1,0,0.1 c0,0.2,0,0.4,0,0.6c0,0.1,0,0.1,0,0.2c0,0.2,0,0.3,0,0.5c0,0.1,0,0.1,0,0.2c0,0.1,0,0.3,0,0.4c0,0.1,0,0.2,0,0.2 c0,0.1,0,0.2,0.1,0.4c0,0.1,0,0.2,0,0.2c0,0.1,0,0.2,0.1,0.3c0,0.1,0,0.2,0,0.2c0,0.1,0,0.2,0.1,0.3c0,0.1,0,0.1,0,0.2 c0,0.1,0.1,0.2,0.1,0.4c0,0.1,0,0.1,0,0.2c0.1,0.4,0.2,0.7,0.2,1c0,0.1,0,0.1,0,0.2c0,0.1,0.1,0.2,0.1,0.3c0,0.1,0,0.1,0.1,0.2 c0,0.1,0.1,0.2,0.1,0.3c0,0.1,0,0.1,0.1,0.2c0,0.1,0.1,0.2,0.1,0.3c0,0.1,0,0.1,0.1,0.2c0,0.1,0.1,0.2,0.1,0.3 C20.8,57.2,20.8,57.3,20.9,57.4L20.9,57.4L20.9,57.4z"></path> <path class="st0" d="M21.1,38.6c0,0.1,0,0.1-0.1,0.2c-0.1,0.1-0.1,0.3-0.1,0.4c0,0,0,0,0,0.1c-0.1,0.2-0.1,0.3-0.1,0.5 c0.1,0.2,0.2,0.4,0.3,0.6c0,0.1,0.1,0.1,0.1,0.2c0.1,0.1,0.1,0.3,0.2,0.4c0,0.1,0.1,0.2,0.1,0.3c0.1,0.1,0.1,0.2,0.2,0.4 c0,0.1,0.1,0.2,0.1,0.3c0,0.1,0.1,0.2,0.1,0.2c0,0,0,0,0-0.1c0.1-0.2,0.2-0.5,0.3-0.7c0,0,0-0.1,0-0.1c0.1-0.2,0.2-0.5,0.3-0.7 c0,0,0,0,0,0c0,0,0,0,0,0l0,0c-0.1-0.2-0.2-0.4-0.3-0.6c0-0.1-0.1-0.2-0.1-0.2c-0.1-0.1-0.1-0.3-0.2-0.4c0-0.1-0.1-0.2-0.1-0.3 c-0.1-0.1-0.1-0.2-0.2-0.4c-0.1-0.1-0.1-0.3-0.2-0.4c0-0.1-0.1-0.1-0.1-0.2c0,0.1-0.1,0.1-0.1,0.2c0,0.1,0,0.1-0.1,0.2 C21.1,38.4,21.1,38.5,21.1,38.6L21.1,38.6z"></path> <path class="st0" d="M22.5,47.2c0.1,0.1,0.1,0.3,0.2,0.4c0.1-0.1,0.1-0.3,0.2-0.4c0-0.1,0.1-0.1,0.1-0.2c0.1-0.3,0.2-0.5,0.4-0.8 c0-0.1-0.1-0.1-0.1-0.2l0-0.1c0-0.1,0-0.1-0.1-0.2c0-0.1,0-0.1-0.1-0.2c0,0,0-0.1,0-0.1c-0.1-0.2-0.1-0.4-0.2-0.6c0,0,0,0,0-0.1 c0-0.1-0.1-0.2-0.1-0.3c0,0.1-0.1,0.1-0.1,0.2c-0.1,0.1-0.1,0.3-0.1,0.4c0,0.1-0.1,0.1-0.1,0.2c0,0.1,0,0.1-0.1,0.2 c0,0.1,0,0.1-0.1,0.2c0,0.1-0.1,0.1-0.1,0.2c0,0.1,0,0.1-0.1,0.2c0,0.1-0.1,0.1-0.1,0.2c0.1,0.2,0.2,0.5,0.4,0.7 C22.4,47,22.5,47.1,22.5,47.2L22.5,47.2L22.5,47.2z"></path> <path class="st0" d="M22.1,35.8c0,0.1-0.1,0.2-0.1,0.3c-0.1,0.2-0.2,0.4-0.3,0.7c0,0,0,0.1,0,0.1c-0.1,0.2-0.2,0.5-0.3,0.7 c0.1,0.2,0.2,0.3,0.2,0.5c0,0.1,0.1,0.1,0.1,0.2c0.1,0.2,0.2,0.5,0.3,0.7c0,0.1,0.1,0.2,0.1,0.2c0.1,0.1,0.1,0.3,0.2,0.4 c0.1,0.1,0.1,0.3,0.2,0.4c0,0.1,0.1,0.1,0.1,0.2c0,0,0-0.1,0-0.1c0.2-0.3,0.3-0.7,0.5-1c0-0.1,0.1-0.1,0.1-0.2 c0.1-0.1,0.1-0.2,0.2-0.3c0.1-0.1,0.1-0.2,0.1-0.3c0.1-0.1,0.1-0.2,0.2-0.3c0.1-0.1,0.1-0.2,0.2-0.3c-0.1-0.2-0.2-0.5-0.3-0.7 c0-0.1,0-0.1-0.1-0.2c-0.1-0.2-0.2-0.4-0.3-0.6c0-0.1-0.1-0.2-0.1-0.3c-0.1-0.2-0.1-0.3-0.2-0.5c-0.1-0.1-0.1-0.2-0.2-0.3 c-0.1-0.1-0.1-0.2-0.2-0.3c-0.1,0.1-0.1,0.2-0.2,0.3c-0.1,0.1-0.1,0.2-0.1,0.3C22.3,35.5,22.2,35.7,22.1,35.8z"></path> <path class="st0" d="M23.2,59.9c0-0.1,0-0.1,0-0.2c0,0,0-0.1,0-0.1c0-0.1,0-0.1,0-0.2c0-0.1,0-0.1,0-0.2c0-0.1,0-0.1,0-0.2 c0-0.1,0-0.1,0-0.2c0-0.1,0-0.1,0-0.2c0-0.1,0-0.1,0-0.2c0-0.1,0-0.1,0-0.2c0-0.1,0-0.1,0-0.2c0-0.1,0-0.1,0-0.2c0-0.1,0-0.1,0-0.2 c0-0.1,0-0.1,0-0.2c0-0.1,0-0.1,0-0.2c0-0.1,0-0.1,0-0.2c0-0.1,0-0.1,0-0.2c0-0.1,0-0.1,0-0.2c0-0.1,0-0.2,0-0.2c0-0.1,0-0.1,0-0.2 c0-0.1,0-0.2,0-0.2c0-0.1,0-0.2,0-0.2c0-0.1,0-0.2,0-0.2c0-0.1,0-0.2,0-0.2c0-0.1,0-0.2,0-0.3c0-0.1,0-0.2,0-0.2v-0.5 c0-0.1,0-0.2,0-0.3c0-0.1,0-0.2,0-0.2c0-0.1,0-0.2,0-0.3c0-0.1,0-0.2,0-0.3c0-0.1,0-0.2,0-0.3c0-0.1,0-0.2,0-0.3c0-0.1,0-0.2,0-0.3 c0-0.1,0-0.2,0-0.3c0-0.1,0-0.2,0-0.3c0-0.1,0-0.2,0-0.3c0-0.1,0-0.2-0.1-0.3c0-0.1,0-0.2-0.1-0.3c0-0.1,0-0.2-0.1-0.3 c0-0.1,0-0.2-0.1-0.3c0-0.1-0.1-0.2-0.1-0.3c0-0.1,0-0.2-0.1-0.3c0-0.1-0.1-0.2-0.1-0.3c0-0.1-0.1-0.2-0.1-0.2 c0-0.1-0.1-0.2-0.1-0.4c0-0.1-0.1-0.1-0.1-0.2c-0.1-0.2-0.2-0.4-0.2-0.6c0,0,0-0.1,0-0.1c0,0.1-0.1,0.1-0.1,0.2 c0,0.1-0.1,0.2-0.1,0.3c0,0.1-0.1,0.2-0.1,0.3c0,0.1-0.1,0.2-0.1,0.3c0,0.1-0.1,0.2-0.1,0.2c0,0.1-0.1,0.2-0.1,0.3 c0,0.1,0,0.1-0.1,0.2c0,0.1-0.1,0.2-0.1,0.3c0,0.1,0,0.1-0.1,0.2c0,0.1-0.1,0.2-0.1,0.3c0,0.1,0,0.1,0,0.2c0,0.1-0.1,0.2-0.1,0.3 c0,0.1,0,0.1,0,0.2c0,0.1,0,0.2-0.1,0.3c0,0.1,0,0.1,0,0.2c0,0.1,0,0.2-0.1,0.3c0,0.1,0,0.1,0,0.2c0,0.1,0,0.2,0,0.4 c0,0.1,0,0.1,0,0.1c0,0.1,0,0.2,0,0.4c0,0,0,0.1,0,0.1c0,0.1,0,0.2,0,0.4c0,0,0,0.1,0,0.1c0,0.1,0,0.2,0,0.4v0.5c0,0,0,0.1,0,0.1 c0,0.1,0,0.2,0,0.4c0,0,0,0.1,0,0.1c0,0.1,0,0.2,0,0.3c0,0,0,0.1,0,0.1c0,0.1,0,0.2,0,0.3c0,0,0,0.1,0,0.1c0,0.1,0,0.2,0,0.3 c0,0,0,0.1,0,0.1c0,0.1,0,0.2,0,0.3c0,0,0,0.1,0,0.1c0,0.1,0,0.2,0,0.3c0,0,0,0.1,0,0.1c0,0.1,0,0.2,0.1,0.3c0,0,0,0.1,0,0.1 c0,0.1,0,0.2,0.1,0.3c0,0,0,0.1,0,0.1c0,0.1,0,0.2,0.1,0.3c0,0,0,0.1,0,0.1c0,0.1,0,0.2,0.1,0.2c0,0,0,0.1,0,0.1 c0,0.1,0,0.2,0.1,0.2c0,0,0,0.1,0,0.1c0,0.1,0,0.1,0.1,0.2c0,0,0,0.1,0,0.1c0,0.1,0,0.1,0.1,0.2c0,0,0,0.1,0,0.1 c0,0.1,0,0.1,0.1,0.2c0,0,0,0.1,0,0.1s0,0.1,0,0.1c0,0,0,0.1,0,0.1c0,0,0,0.1,0,0.1c0,0,0,0.1,0,0.1c0,0,0,0.1,0,0.1 c0,0,0,0.1,0,0.1c0,0,0,0.1,0,0.1c0,0.1,0,0.1,0.1,0.2c0,0.1,0.1,0.1,0.1,0.2c0,0,0,0,0,0c0,0,0-0.1,0-0.1c0,0,0,0,0,0 c0,0,0-0.1,0-0.1c0,0,0,0,0-0.1c0,0,0-0.1,0-0.1c0,0,0,0,0-0.1c0,0,0-0.1,0-0.1c0,0,0-0.1,0-0.1c0,0,0-0.1,0-0.1c0,0,0-0.1,0-0.1 c0,0,0-0.1,0-0.1c0,0,0-0.1,0-0.1c0-0.1,0-0.1,0-0.2C23.2,59.9,23.2,59.9,23.2,59.9L23.2,59.9L23.2,59.9z"></path> <path class="st0" d="M19.1,36.9C19.1,36.9,19.2,36.9,19.1,36.9c0.1,0.1,0.1,0.2,0.1,0.2c0,0,0,0.1,0,0.1c0,0.1,0.1,0.1,0.1,0.2 c0,0,0,0.1,0.1,0.1c0,0.1,0.1,0.1,0.1,0.2c0,0,0.1,0.1,0.1,0.1c0,0,0.1,0.1,0.1,0.1c0,0.1,0.1,0.1,0.1,0.2c0,0,0.1,0.1,0.1,0.1 c0,0.1,0.1,0.1,0.1,0.2c0,0,0,0.1,0.1,0.1c0,0.1,0.1,0.1,0.1,0.2c0,0,0,0.1,0.1,0.1c0,0.1,0.1,0.1,0.1,0.2c0,0,0,0.1,0.1,0.1 c0,0.1,0.1,0.2,0.1,0.2c0,0,0,0,0,0c0-0.1,0-0.1,0.1-0.2c0-0.1,0-0.1,0.1-0.2c0-0.1,0.1-0.2,0.1-0.3c0-0.1,0-0.1,0.1-0.2 c0.1-0.1,0.1-0.3,0.2-0.4c0,0,0,0,0-0.1c0.1-0.2,0.1-0.3,0.2-0.5c-0.1-0.2-0.2-0.4-0.3-0.6c0,0,0,0,0,0c0-0.1-0.1-0.1-0.1-0.2 c0,0,0-0.1-0.1-0.1c0-0.1-0.1-0.1-0.1-0.2c0-0.1-0.1-0.1-0.1-0.2c0,0,0-0.1-0.1-0.1c0-0.1-0.1-0.1-0.1-0.2c0,0,0-0.1,0-0.1 c-0.1-0.1-0.1-0.2-0.1-0.3c0,0,0,0,0,0c-0.4-0.8-0.7-1.5-0.9-1.8c-0.3,0.7-0.6,1.4-0.8,2C18.6,35.9,18.8,36.3,19.1,36.9L19.1,36.9 L19.1,36.9z"></path> <path class="st0" d="M19.3,33.4c0.1,0.3,0.6,1.1,1.1,2.3c0,0,0,0,0,0c0.1,0.1,0.1,0.2,0.1,0.3c0,0,0,0,0,0.1 c0.1,0.1,0.1,0.2,0.1,0.3c0,0,0,0,0,0.1c0.1,0.1,0.1,0.2,0.2,0.3c0,0,0,0,0,0c0.1,0.1,0.1,0.2,0.2,0.3c0,0,0,0,0,0 c0,0.1,0.1,0.1,0.1,0.2c0-0.1,0.1-0.2,0.1-0.3c0-0.1,0.1-0.2,0.1-0.3c0.1-0.1,0.1-0.3,0.2-0.4c0-0.1,0.1-0.2,0.1-0.3 c0.1-0.2,0.2-0.4,0.3-0.6c0-0.1,0.1-0.1,0.1-0.2c0.1-0.2,0.2-0.5,0.3-0.7c0,0,0,0,0,0c0-0.1-0.1-0.2-0.1-0.2c0,0,0-0.1-0.1-0.1 c0-0.1-0.1-0.1-0.1-0.2c0,0,0-0.1-0.1-0.1c0-0.1-0.1-0.1-0.1-0.1c0,0,0-0.1-0.1-0.1c0,0-0.1-0.1-0.1-0.1c0,0,0-0.1-0.1-0.1 c0-0.1-0.1-0.1-0.1-0.1c0,0,0-0.1-0.1-0.1c0-0.1-0.1-0.1-0.1-0.2c0,0,0-0.1-0.1-0.1c0-0.1-0.1-0.1-0.1-0.2l0-0.1 c0-0.1-0.1-0.1-0.1-0.2c0,0,0,0,0-0.1c-0.3-0.6-0.6-1.1-0.7-1.5C20.2,31.6,19.7,32.5,19.3,33.4L19.3,33.4z"></path> <path class="st0" d="M18.4,36.1c0,0-0.1-0.1-0.1-0.1c-0.3,0.8-0.5,1.7-0.7,2.5l0,0.1v0c0,0.1,0.1,0.1,0.1,0.2c0,0,0,0,0,0 c0,0,0,0.1,0.1,0.1c0,0,0,0,0,0c0,0,0,0.1,0.1,0.1c0,0,0,0,0,0.1c0,0,0.1,0.1,0.1,0.1c0,0,0,0,0,0c0,0.1,0.1,0.1,0.1,0.2 c0,0,0,0.1,0,0.1c0,0,0.1,0.1,0.1,0.1c0,0,0,0.1,0.1,0.1c0,0,0.1,0.1,0.1,0.1c0,0,0,0.1,0.1,0.1c0,0.1,0.1,0.1,0.1,0.1 c0,0,0,0.1,0.1,0.1c0,0.1,0.1,0.1,0.1,0.1c0,0,0.1,0.1,0.1,0.1c0,0.1,0.1,0.1,0.1,0.2c0,0,0.1,0.1,0.1,0.1c0,0.1,0.1,0.1,0.1,0.2 s0.1,0.1,0.1,0.2c0,0,0.1,0.1,0.1,0.1c0,0.1,0.1,0.1,0.1,0.2c0,0.1,0.1,0.1,0.1,0.1c0,0.1,0.1,0.1,0.1,0.2c0,0,0.1,0.1,0.1,0.1 c0,0.1,0.1,0.1,0.1,0.2c0,0,0,0,0,0c0-0.1,0-0.2,0.1-0.2c0-0.1,0-0.2,0.1-0.2c0-0.1,0.1-0.3,0.1-0.4c0-0.1,0-0.2,0.1-0.2 c0-0.2,0.1-0.3,0.1-0.5c0-0.1,0-0.1,0-0.2c0.1-0.2,0.1-0.4,0.2-0.6c-0.1-0.2-0.2-0.4-0.3-0.7c0,0,0,0,0-0.1 c-0.1-0.1-0.1-0.2-0.1-0.3c0,0,0-0.1,0-0.1c0-0.1-0.1-0.2-0.1-0.2c0,0,0-0.1-0.1-0.1c0-0.1-0.1-0.1-0.1-0.2c0,0,0-0.1-0.1-0.1 c0-0.1-0.1-0.1-0.1-0.2c0,0,0-0.1-0.1-0.1c0-0.1-0.1-0.1-0.1-0.2c0,0,0-0.1-0.1-0.1c0-0.1-0.1-0.1-0.1-0.2c0,0,0-0.1-0.1-0.1 c0-0.1-0.1-0.1-0.1-0.2c0,0,0-0.1,0-0.1c0-0.1-0.1-0.1-0.1-0.2c0-0.1-0.1-0.1-0.1-0.2c0,0,0,0,0-0.1c0-0.1-0.1-0.1-0.1-0.1 c0,0,0,0,0,0c0-0.1-0.1-0.1-0.1-0.1c0,0,0,0,0,0C18.5,36.2,18.4,36.1,18.4,36.1L18.4,36.1L18.4,36.1z"></path> <path class="st0" d="M28.2,45.6c-0.1-2-0.4-4.1-0.9-6.1c0,0,0,0.1-0.1,0.1c0,0-0.1,0.1-0.1,0.1c0,0.1-0.1,0.1-0.1,0.2 C27,39.9,27,40,27,40c0,0.1-0.1,0.1-0.1,0.2c0,0.1-0.1,0.1-0.1,0.1c0,0.1-0.1,0.1-0.1,0.2c0,0.1-0.1,0.1-0.1,0.2 c-0.1,0.1-0.1,0.2-0.1,0.2c0,0.1-0.1,0.1-0.1,0.1c-0.1,0.1-0.1,0.2-0.2,0.3c0,0-0.1,0.1-0.1,0.1c-0.1,0.1-0.1,0.2-0.2,0.4 c0,0,0,0.1-0.1,0.1c-0.1,0.1-0.1,0.2-0.2,0.3c0.1,0.3,0.1,0.6,0.2,0.8c0,0.1,0,0.2,0,0.2c0,0.2,0.1,0.4,0.1,0.6c0,0.1,0,0.2,0,0.3 c0,0.2,0.1,0.3,0.1,0.5c0,0.1,0,0.2,0,0.3c0,0.2,0,0.3,0.1,0.5c0,0.1,0,0.2,0,0.3c0,0.2,0,0.3,0,0.5c0,0.1,0,0.2,0,0.3 c0,0.2,0,0.3,0,0.5c0,0.1,0,0.2,0,0.3c0,0.2,0,0.3,0,0.5c0,0.1,0,0.2,0,0.3c0,0.2,0,0.4,0,0.6c0,0.1,0,0.1,0,0.2c0,0.3,0,0.5,0,0.7 c0,0,0,0,0,0.1c0,0.2,0,0.4,0,0.7c0,0.1,0,0.1,0,0.2c0,0.2,0,0.3,0,0.5c0,0.1,0,0.2,0,0.2c0,0.1,0,0.3-0.1,0.4c0,0.1,0,0.2,0,0.2 c0,0.1,0,0.3-0.1,0.4c0,0.1,0,0.2,0,0.2c0,0.1,0,0.3-0.1,0.4c0,0.1,0,0.2,0,0.2c0,0.1-0.1,0.3-0.1,0.4c0,0.1,0,0.1,0,0.2 c0,0.2-0.1,0.3-0.1,0.5c0,0,0,0.1,0,0.1c-0.1,0.4-0.2,0.8-0.3,1.1c0,0,0,0.1,0,0.1c0,0.1-0.1,0.3-0.1,0.4c0,0.1,0,0.1-0.1,0.2 c0,0.1-0.1,0.2-0.1,0.3c0,0.1,0,0.1-0.1,0.2c0,0.1-0.1,0.2-0.1,0.3c0,0.1,0,0.1-0.1,0.2c0,0.1-0.1,0.2-0.1,0.3c0,0.1,0,0.1-0.1,0.2 c0,0.1-0.1,0.2-0.1,0.3c0,0.1,0,0.1-0.1,0.2c0,0.1-0.1,0.2-0.1,0.3c0,0,0,0.1-0.1,0.1c0,0.1-0.1,0.2-0.1,0.3c0,0,0,0,0,0.1 c-0.1,0.1-0.1,0.2-0.2,0.4c0,0,0,0.1-0.1,0.1c0,0.1-0.1,0.1-0.1,0.2c0,0,0,0.1-0.1,0.1c0,0.1-0.1,0.1-0.1,0.2c0,0,0,0.1-0.1,0.1 l0,0.1c1.5-1.8,2.6-3.8,3.5-5.9C27.9,51.9,28.3,48.9,28.2,45.6L28.2,45.6z"></path> <path class="st0" d="M20.8,30.5C20.8,30.5,20.8,30.5,20.8,30.5c0,0.1,0,0.1,0.1,0.1c0,0,0,0,0,0.1c0,0,0,0.1,0,0.1c0,0,0,0.1,0,0.1 c0,0,0,0.1,0.1,0.1c0,0,0,0.1,0,0.1c0,0,0,0.1,0.1,0.1c0,0,0,0.1,0.1,0.1c0,0,0,0.1,0.1,0.1c0,0,0,0.1,0,0.1c0,0.1,0.1,0.1,0.1,0.2 c0,0,0,0,0,0.1c0,0.1,0.1,0.1,0.1,0.2c0,0,0,0.1,0.1,0.1c0,0.1,0,0.1,0.1,0.1c0,0,0,0.1,0.1,0.1c0,0.1,0.1,0.2,0.1,0.2 c0,0.1,0.1,0.1,0.1,0.2c0,0,0,0.1,0.1,0.1c0,0.1,0.1,0.1,0.1,0.2c0,0,0,0.1,0.1,0.1c0,0.1,0.1,0.1,0.1,0.2c0,0,0,0.1,0.1,0.1 c0,0.1,0.1,0.1,0.1,0.2c0,0,0,0.1,0.1,0.1c0,0.1,0.1,0.1,0.1,0.2c0,0,0,0.1,0.1,0.1c0,0.1,0.1,0.1,0.1,0.1c0,0,0,0.1,0.1,0.1 c0,0,0,0.1,0.1,0.1c0,0,0-0.1,0-0.1c0.4-0.7,0.9-1.7,1.5-2.7c0,0,0,0,0-0.1c0.1-0.1,0.1-0.2,0.2-0.3c0-0.1,0.1-0.1,0.1-0.2 c-0.8-1.8-1.5-3-1.8-3.4C22.4,27.8,21.7,28.9,20.8,30.5L20.8,30.5L20.8,30.5z"></path> <path class="st0" d="M17,44.8c0,0.3,0,0.6,0,0.8c0.3,4.3,1.7,8.7,4.1,13.1c-0.2-0.5-0.4-1.2-0.6-1.8c0,0,0,0,0,0 c0-0.1-0.1-0.3-0.1-0.4c0,0,0,0,0,0c0-0.2-0.1-0.3-0.1-0.5c0,0,0,0,0,0c-0.1-0.3-0.2-0.7-0.3-1c0,0,0,0,0,0c0-0.2-0.1-0.3-0.1-0.5 c0,0,0-0.1,0-0.1c0-0.1-0.1-0.3-0.1-0.4c0,0,0-0.1,0-0.1c0-0.2-0.1-0.3-0.1-0.5c0,0,0,0,0-0.1c-0.1-0.4-0.1-0.8-0.2-1.2 c0,0,0-0.1,0-0.1c0-0.2,0-0.3-0.1-0.5c0-0.1,0-0.1,0-0.2c0-0.1,0-0.3,0-0.4c0-0.1,0-0.1,0-0.2c0-0.2,0-0.4,0-0.5c0,0,0-0.1,0-0.1 c0-0.2,0-0.4,0-0.7c0,0,0-0.1,0-0.1c0-0.2,0-0.3,0-0.5v-0.7c0-0.1,0-0.2,0-0.2c0-0.2,0-0.3,0-0.5c0-0.1,0-0.1,0-0.2 c0-0.2,0-0.4,0-0.6c0,0,0,0,0-0.1c0-0.2,0-0.5,0.1-0.7c0-0.1,0-0.1,0-0.2c0-0.2,0-0.3,0.1-0.5c0-0.1,0-0.2,0-0.3 c0-0.2,0-0.3,0.1-0.5c0-0.1,0-0.2,0-0.3c0-0.2,0.1-0.3,0.1-0.5c0-0.1,0-0.2,0-0.2c0-0.2,0.1-0.5,0.1-0.7c-0.1-0.2-0.3-0.4-0.4-0.6 c0,0,0,0,0-0.1c-0.1-0.1-0.1-0.2-0.2-0.3c0,0,0-0.1-0.1-0.1c0-0.1-0.1-0.1-0.1-0.2c0,0,0-0.1-0.1-0.1c0-0.1-0.1-0.1-0.1-0.2 c0,0-0.1-0.1-0.1-0.1c0-0.1-0.1-0.1-0.1-0.1c0,0-0.1-0.1-0.1-0.1c0,0-0.1-0.1-0.1-0.1c0,0-0.1-0.1-0.1-0.1c0,0,0-0.1-0.1-0.1 c-0.1-0.2-0.2-0.4-0.4-0.5c0,0,0,0,0,0c0-0.1-0.1-0.1-0.1-0.2c0,0,0,0,0,0c0-0.1-0.1-0.1-0.1-0.2c0,0,0,0,0,0c0-0.1-0.1-0.1-0.1-0.1 c0,0,0,0,0,0c0,0-0.1-0.1-0.1-0.1c0,0-0.1-0.1-0.1-0.1C17.2,40.8,17,42.8,17,44.8L17,44.8L17,44.8z"></path> <path class="st0" d="M25.8,41.5c0-0.1,0.1-0.1,0.1-0.2c0-0.1,0.1-0.1,0.1-0.2c0-0.1,0.1-0.1,0.1-0.2c0-0.1,0.1-0.1,0.1-0.2 c0-0.1,0.1-0.1,0.1-0.2c0-0.1,0.1-0.1,0.1-0.2c0-0.1,0.1-0.1,0.1-0.1c0.1-0.1,0.1-0.2,0.2-0.3c0,0,0-0.1,0.1-0.1 c0.1-0.1,0.2-0.2,0.2-0.4c0,0,0,0,0,0c0.1-0.1,0.1-0.2,0.2-0.3c-0.2-0.8-0.4-1.6-0.6-2.4c0,0,0-0.1,0-0.1c0,0.1-0.1,0.2-0.2,0.3 c0,0.1-0.1,0.1-0.1,0.2c0,0,0,0,0,0c0,0,0,0.1-0.1,0.1c0,0,0,0,0,0.1c0,0.1-0.1,0.1-0.1,0.2c0,0,0,0,0,0c0,0.1-0.1,0.1-0.1,0.2 c0,0,0,0,0,0c0,0.1-0.1,0.1-0.1,0.2c0,0,0,0,0,0c0,0.1-0.1,0.1-0.1,0.2c0,0,0,0,0,0.1c0,0.1-0.1,0.1-0.1,0.2c0,0,0,0,0,0.1l-0.1,0.2 c0,0,0,0.1-0.1,0.1c0,0-0.1,0.1-0.1,0.1c0,0,0,0.1-0.1,0.1c0,0,0,0.1-0.1,0.1c0,0.1-0.1,0.1-0.1,0.2c0,0,0,0.1-0.1,0.1 c0,0.1-0.1,0.1-0.1,0.2c0,0,0,0.1,0,0.1c0,0.1-0.1,0.1-0.1,0.2c0.1,0.2,0.1,0.4,0.2,0.6c0,0.1,0,0.1,0,0.2c0,0.2,0.1,0.3,0.1,0.5 c0,0.1,0,0.2,0.1,0.2c0,0.1,0.1,0.3,0.1,0.4c0,0.1,0,0.2,0.1,0.2c0,0.1,0,0.2,0.1,0.2c0,0,0-0.1,0.1-0.1c0-0.1,0.1-0.1,0.1-0.2 C25.7,41.7,25.8,41.6,25.8,41.5L25.8,41.5L25.8,41.5z"></path> <path class="st0" d="M24.3,38.4c-0.1-0.2-0.1-0.4-0.2-0.6c0,0.1-0.1,0.2-0.1,0.2c0,0.1-0.1,0.2-0.1,0.3c-0.1,0.1-0.1,0.3-0.2,0.4 c0,0.1-0.1,0.1-0.1,0.2c-0.1,0.2-0.1,0.3-0.2,0.5c0,0.1,0,0.1-0.1,0.1c-0.1,0.2-0.2,0.4-0.3,0.6c0,0.1-0.1,0.1-0.1,0.2l0,0.1 c0,0,0,0,0,0c0.1,0.2,0.2,0.5,0.3,0.7c0,0,0,0.1,0,0.1c0.1,0.2,0.2,0.5,0.3,0.7c0,0,0,0,0,0.1c0,0,0-0.1,0.1-0.1 c0.2-0.4,0.3-0.7,0.5-1.1c0,0,0-0.1,0.1-0.1c0.2-0.4,0.4-0.8,0.6-1.1c0,0,0,0,0,0c-0.1-0.3-0.2-0.6-0.3-1 C24.3,38.6,24.3,38.5,24.3,38.4L24.3,38.4z"></path> <path class="st0" d="M24.5,31.3c0,0.1-0.1,0.1-0.1,0.2c0,0.1-0.1,0.2-0.1,0.3c0,0.1-0.1,0.1-0.1,0.2c0,0.1-0.1,0.2-0.1,0.3 c0,0.1-0.1,0.1-0.1,0.2c0,0.1-0.1,0.2-0.1,0.3c0,0.1-0.1,0.1-0.1,0.2c0,0.1-0.1,0.2-0.1,0.3c0,0-0.1,0.1-0.1,0.1 c0,0.1-0.1,0.2-0.1,0.3c0,0,0,0.1-0.1,0.1c-0.1,0.1-0.1,0.2-0.1,0.3c0,0,0,0.1-0.1,0.1C23,34,23,34.1,22.9,34.2 c0,0.1-0.1,0.1-0.1,0.2l0,0v0c0.1,0.2,0.2,0.5,0.3,0.7c0,0,0,0.1,0.1,0.1c0.1,0.2,0.2,0.4,0.3,0.6c0,0.1,0.1,0.2,0.1,0.3 c0.1,0.2,0.1,0.3,0.2,0.5c0,0.1,0.1,0.2,0.1,0.3c0,0.1,0.1,0.2,0.1,0.3c0,0,0-0.1,0.1-0.1c0,0,0-0.1,0.1-0.1c0-0.1,0.1-0.2,0.1-0.2 c0,0,0-0.1,0.1-0.1c0-0.1,0.1-0.1,0.1-0.2c0,0,0-0.1,0.1-0.1c0-0.1,0.1-0.1,0.1-0.2c0,0,0-0.1,0.1-0.1c0-0.1,0.1-0.1,0.1-0.2 c0,0,0-0.1,0.1-0.1c0-0.1,0.1-0.1,0.1-0.2c0,0,0-0.1,0.1-0.1c0-0.1,0.1-0.2,0.1-0.2c0,0,0-0.1,0.1-0.1c0,0,0.1-0.1,0.1-0.1 c0,0,0-0.1,0-0.1c0,0,0-0.1,0.1-0.1c0,0,0,0,0-0.1c0,0,0-0.1,0.1-0.1c0,0,0,0,0-0.1c0,0,0-0.1,0.1-0.1c0,0,0,0,0-0.1 c0,0,0-0.1,0-0.1c0,0,0,0,0,0c0,0,0,0,0-0.1c0,0,0,0,0,0c0,0,0,0,0-0.1c0,0,0,0,0,0c0,0,0,0,0,0c0,0,0,0,0,0c-0.4-1-0.8-2-1.2-3 C24.5,31.2,24.5,31.2,24.5,31.3L24.5,31.3L24.5,31.3z"></path> <path class="st0" d="M21.7,58.9c0,0,0,0.1,0,0.1v0c-0.1-0.5-0.2-1-0.3-1.5c0-0.3-0.1-0.5-0.1-0.8c0,0,0,0,0,0c0-0.1,0-0.3,0-0.4v0 c0-0.1,0-0.3,0-0.4v0c0-0.1,0-0.3,0-0.4c0,0,0-0.1,0-0.1c0-0.3,0-0.6,0-0.9v-0.1c0-0.1,0-0.3,0-0.4c0,0,0-0.1,0-0.1 c0-0.2,0-0.3,0-0.5c0,0,0,0,0-0.1c0-0.1,0-0.3,0-0.4c0,0,0-0.1,0-0.1c0-0.1,0-0.3,0-0.4c0,0,0,0,0-0.1c0-0.2,0-0.3,0.1-0.5 c0,0,0-0.1,0-0.1c0-0.1,0-0.3,0.1-0.4c0,0,0-0.1,0-0.1c0-0.2,0.1-0.3,0.1-0.5c0,0,0,0,0-0.1c0-0.1,0.1-0.3,0.1-0.4c0,0,0-0.1,0-0.1 c0-0.1,0.1-0.3,0.1-0.4c0,0,0-0.1,0-0.1c0.1-0.2,0.1-0.3,0.2-0.5c0,0,0-0.1,0-0.1c0-0.1,0.1-0.3,0.1-0.4c0,0,0-0.1,0.1-0.1 c0.1-0.2,0.1-0.3,0.2-0.5c0,0,0-0.1,0-0.1c-0.1-0.2-0.2-0.5-0.3-0.7c0-0.1-0.1-0.1-0.1-0.2c-0.1-0.1-0.1-0.3-0.2-0.4 c0,0.1,0,0.1-0.1,0.2c0,0.1,0,0.1-0.1,0.2c0,0.1-0.1,0.2-0.1,0.4c0,0.1,0,0.1-0.1,0.2c0,0.1-0.1,0.3-0.1,0.4c0,0.1,0,0.1,0,0.1 c-0.1,0.4-0.2,0.7-0.2,1.1c0,0.1,0,0.1,0,0.1c0,0.1,0,0.2-0.1,0.4c0,0.1,0,0.1,0,0.2c0,0.1,0,0.2-0.1,0.3c0,0.1,0,0.1,0,0.2 c0,0.1,0,0.2,0,0.3c0,0.1,0,0.1,0,0.2c0,0.1,0,0.2,0,0.3c0,0.1,0,0.1,0,0.2c0,0.1,0,0.2,0,0.3c0,0.1,0,0.1,0,0.2c0,0.1,0,0.2,0,0.3 c0,0.1,0,0.1,0,0.2c0,0.1,0,0.2,0,0.3c0,0,0,0.1,0,0.1c0,0.1,0,0.3,0,0.4v0.4c0,0.1,0,0.1,0,0.2c0,0.1,0,0.2,0,0.3 c0,0.1,0,0.1,0,0.2c0,0.1,0,0.2,0,0.2c0,0.1,0,0.1,0,0.2c0,0.1,0,0.2,0,0.2c0,0.1,0,0.1,0,0.2c0,0.1,0,0.1,0,0.2c0,0.1,0,0.1,0,0.2 l0,0.2c0,0.1,0,0.1,0,0.2c0,0.1,0,0.1,0,0.2c0,0.1,0,0.1,0,0.1c0,0.1,0,0.2,0,0.3c0,0,0,0.1,0,0.1c0,0.1,0,0.2,0.1,0.3 c0,0,0,0.1,0,0.1c0,0.1,0,0.1,0,0.2c0,0.1,0,0.1,0,0.1c0,0.1,0,0.1,0,0.2c0,0.1,0,0.1,0,0.1c0,0.1,0,0.1,0,0.2c0,0.1,0,0.1,0,0.1 c0,0.1,0,0.1,0,0.2c0,0,0,0.1,0,0.1c0,0.1,0,0.1,0,0.2c0,0,0,0.1,0,0.1c0,0.1,0,0.1,0,0.1c0,0,0,0.1,0,0.1 C21.7,58.8,21.7,58.9,21.7,58.9L21.7,58.9L21.7,58.9z"></path> <path class="st0" d="M25.2,41.5c0-0.2-0.1-0.3-0.1-0.5c0-0.1,0-0.2-0.1-0.2c0-0.1-0.1-0.3-0.1-0.4c0-0.1-0.1-0.2-0.1-0.3 c0-0.1,0-0.2-0.1-0.2c0,0,0,0.1-0.1,0.1c-0.2,0.4-0.4,0.7-0.5,1.1c0,0,0,0.1-0.1,0.1c-0.2,0.4-0.4,0.7-0.5,1.1c0,0,0,0,0,0 c0,0,0,0,0,0c0.1,0.3,0.2,0.6,0.3,0.9c0,0,0,0.1,0,0.1c0.1,0.3,0.2,0.6,0.3,0.9c0,0,0,0.1,0,0.1c0-0.1,0.1-0.1,0.1-0.2 c0-0.1,0.1-0.2,0.1-0.2c0.1-0.1,0.1-0.2,0.2-0.4c0-0.1,0.1-0.1,0.1-0.2c0.1-0.2,0.2-0.3,0.3-0.5c0,0,0-0.1,0.1-0.1 c0.1-0.2,0.2-0.4,0.3-0.5c0-0.2-0.1-0.4-0.1-0.6C25.2,41.6,25.2,41.6,25.2,41.5L25.2,41.5z"></path> <path class="st0" d="M26.4,35.8c-0.2-0.7-0.4-1.2-0.5-1.4c0,0-0.1,0.1-0.1,0.2c0,0,0,0,0,0c0,0,0,0,0,0c0,0,0,0.1-0.1,0.1 c0,0,0,0,0,0c-0.2,0.4-0.5,0.9-0.8,1.5c0,0,0,0,0,0c0,0.1-0.1,0.1-0.1,0.2c0,0,0,0.1-0.1,0.1c0,0,0,0.1-0.1,0.1 c0,0.1-0.1,0.1-0.1,0.2c0,0,0,0,0,0.1c0,0.1-0.1,0.2-0.1,0.3c0,0,0,0,0,0c-0.1,0.1-0.1,0.2-0.1,0.3c0.1,0.3,0.2,0.6,0.3,0.9 c0,0.1,0.1,0.2,0.1,0.3c0.1,0.2,0.1,0.4,0.2,0.6c0,0,0-0.1,0-0.1c0-0.1,0.1-0.1,0.1-0.1C25,39.1,25,39,25,39c0,0,0.1-0.1,0.1-0.1 c0-0.1,0.1-0.1,0.1-0.2c0,0,0.1-0.1,0.1-0.1c0-0.1,0.1-0.1,0.1-0.2c0,0,0-0.1,0.1-0.1c0-0.1,0.1-0.1,0.1-0.2c0,0,0-0.1,0.1-0.1 c0-0.1,0.1-0.1,0.1-0.2c0-0.1,0.1-0.1,0.1-0.2c0,0,0-0.1,0.1-0.1c0,0,0-0.1,0.1-0.1c0,0,0-0.1,0.1-0.1c0,0,0.1-0.1,0.1-0.1 c0,0,0,0,0-0.1c0,0,0-0.1,0.1-0.1c0,0,0,0,0-0.1c0,0,0-0.1,0.1-0.1c0,0,0,0,0,0c0,0,0-0.1,0.1-0.1c0.1-0.2,0.2-0.3,0.2-0.3 C26.5,36.2,26.4,36,26.4,35.8L26.4,35.8L26.4,35.8z"></path> </svg> 