<svg width="34" height="27" viewBox="0 0 34 27" fill="none" xmlns="http://www.w3.org/2000/svg">
<path d="M7.41968 0.69006C2.64969 1.34485 -0.623499 5.42586 0.100222 9.84189C0.643013 13.1463 3.38986 15.7655 7.02492 16.4659C7.6993 16.5877 8.53815 16.6791 8.88357 16.6487C9.65663 16.5877 9.65663 16.5877 8.09405 18.5826C7.41968 19.4353 6.86044 20.2576 6.86044 20.3947C6.86044 20.6079 7.09071 20.6383 8.39012 20.6383L9.90336 20.6231L12.9298 16.8162C16.1043 12.8113 16.7952 11.8215 16.6965 11.4103C16.6636 11.2124 14.8707 10.451 14.4102 10.4358C14.3608 10.4358 14.1799 10.7251 13.999 11.0753C13.5549 11.9738 12.2883 13.1311 11.1863 13.6031C10.3639 13.9534 10.0185 14.0143 8.65329 14.0143C7.17295 14.0143 7.00847 13.9838 5.95579 13.4813C4.60703 12.8417 3.62014 11.8215 3.07735 10.4815C2.5839 9.24801 2.64969 7.52728 3.27473 6.29384C4.14648 4.57311 5.97223 3.37013 8.04471 3.15694L9.08095 3.05035L9.22898 2.03009C9.44281 0.446417 9.39346 0.415962 7.41968 0.69006Z" fill="#7642CA"/>
<path d="M11.3673 0.705296C11.2192 0.93371 10.2981 9.15665 10.3475 9.7353C10.3968 10.116 10.5284 10.2074 11.4495 10.5271C12.0252 10.7251 12.5844 10.8926 12.6996 10.8926C12.8147 10.8926 13.0943 10.5728 13.2917 10.1769C13.818 9.15665 14.9201 8.21254 16.203 7.64911C17.157 7.22274 17.4695 7.16183 18.6209 7.17705C19.7558 7.17705 20.1177 7.25319 21.0388 7.64911C23.687 8.80641 25.0851 11.4256 24.3942 13.9381C24.0488 15.1716 23.21 16.3593 22.1902 17.0598C21.302 17.6689 19.6407 18.2019 18.6374 18.2019C17.7985 18.2019 16.3675 17.8364 15.578 17.41L15.0023 17.1055L14.476 17.6841C13.8016 18.4455 13.5384 18.8871 13.6536 19.146C13.6864 19.2678 14.147 19.5419 14.6404 19.7703C18.0946 21.3236 21.9599 20.7906 24.641 18.3542C28.1115 15.202 28.1444 10.1921 24.7067 7.00955C22.0257 4.52744 18.1768 3.94879 14.7062 5.53247L13.4068 6.12634L13.522 4.8929C13.5713 4.20766 13.67 3.53764 13.7029 3.38536C13.7851 3.14172 14.1799 3.12649 19.0321 3.12649H24.2626L24.7067 1.99965C24.9535 1.37531 25.1015 0.796661 25.0357 0.705296C24.8877 0.461653 11.5317 0.476879 11.3673 0.705296Z" fill="#7642CA"/>
<path d="M29.8879 4.63403C29.8879 4.81676 29.9866 4.95381 30.1511 4.95381C30.2991 4.95381 30.3814 4.84722 30.3485 4.69494C30.2662 4.31425 29.8879 4.26857 29.8879 4.63403Z" fill="#7642CA"/>
<path d="M28.6872 5.34973C28.1444 5.68474 28.0951 5.76088 28.2596 6.03498C28.4405 6.35476 28.4569 6.33953 29.082 5.77611C30.0689 4.8929 29.8386 4.64926 28.6872 5.34973Z" fill="#7642CA"/>
<path d="M29.8551 5.95883C28.8846 6.44612 28.7695 6.55271 28.9175 6.79636C29.0327 6.99432 29.2629 7.08568 29.6906 7.10091C30.0196 7.11614 30.4801 7.16182 30.7104 7.22273C31.1051 7.32932 31.1051 7.34455 30.4308 7.66433C29.7235 7.99934 29.5755 8.1973 29.888 8.38003C30.0031 8.44094 31.8782 7.69479 32.1578 7.46637C32.1907 7.43592 32.1414 7.26841 32.0262 7.10091C31.8782 6.82681 31.6973 6.78113 30.8749 6.78113C30.3321 6.78113 29.888 6.72022 29.888 6.65931C29.888 6.5984 30.2169 6.38521 30.6281 6.20248C31.138 5.97406 31.3354 5.80656 31.2696 5.63905C31.138 5.3345 31.1216 5.3345 29.8551 5.95883Z" fill="#7642CA"/>
<path d="M28.4076 7.39023C28.4076 7.4816 28.5227 7.58819 28.6543 7.63388C28.8023 7.69479 28.8846 7.83184 28.8681 7.96889C28.8352 8.09071 28.9175 8.22776 29.0326 8.25821C29.3287 8.36481 29.2793 7.77093 28.9668 7.4816C28.6708 7.2075 28.4076 7.16182 28.4076 7.39023Z" fill="#7642CA"/>
<path d="M31.286 8.59322C30.661 8.73027 30.1511 8.89778 30.1676 8.95869C30.2663 9.35461 30.3649 9.36984 31.4999 9.12619C32.4539 8.92823 32.6841 8.82164 32.6841 8.59322C32.6841 8.44095 32.6348 8.31913 32.569 8.31913C32.4868 8.33435 31.9275 8.45618 31.286 8.59322Z" fill="#7642CA"/>
<path d="M31.5327 9.59825C31.4012 9.7353 31.3518 10.0551 31.4176 10.4358C31.4834 10.9687 31.4669 11.0449 31.1873 11.0449C30.8748 11.0449 30.5787 11.4256 30.7597 11.6083C30.809 11.654 31.4176 11.5778 32.1084 11.4256L33.3585 11.1667L33.2598 10.6946C33.046 9.78098 32.7993 9.44597 32.2565 9.40029C31.9439 9.36983 31.6643 9.44597 31.5327 9.59825ZM32.6183 10.2226C32.7335 10.6185 32.5032 10.8926 32.0755 10.8926C31.8617 10.8926 31.7795 10.116 31.9768 9.93326C32.2071 9.70484 32.5196 9.84189 32.6183 10.2226Z" fill="#7642CA"/>
<path d="M32.9309 11.9433C32.8815 12.0347 32.3552 12.1108 31.763 12.1108H30.7104V13.0854V14.06L31.7301 14.1209C32.3058 14.1666 32.7828 14.2731 32.8157 14.3645C32.9144 14.6386 33.8355 14.5929 33.8355 14.3188C33.8355 14.197 33.7204 14.0904 33.5888 14.0904C33.3914 14.0904 33.3421 13.8925 33.3421 13.2529C33.3421 12.522 33.375 12.4154 33.671 12.4154C33.852 12.4154 34 12.3088 34 12.187C34 12.0651 33.9013 11.9585 33.7697 11.9585C33.6381 11.9585 33.4243 11.9129 33.2927 11.8672C33.1611 11.8215 32.9967 11.8519 32.9309 11.9433ZM32.8486 13.2529C32.8486 13.7402 32.8157 13.7859 32.4374 13.7097C32.2071 13.664 31.8453 13.6031 31.615 13.5574C31.3025 13.4965 31.2038 13.3747 31.2038 13.1006C31.2038 12.7504 31.2531 12.7199 32.0262 12.7199H32.8486V13.2529Z" fill="#7642CA"/>
<path d="M30.6281 14.73C30.5623 14.8975 30.661 15.2173 30.8748 15.537L31.2367 16.07L30.7104 16.0396C29.9702 15.9786 29.9044 16.3137 30.5788 16.5725L31.1216 16.7857L30.4307 16.9837C30.0524 17.0903 29.6906 17.2882 29.6412 17.41C29.5096 17.7298 29.5919 17.7603 30.2992 17.5775C30.9242 17.41 30.9571 17.4253 31.467 17.9735C31.9111 18.476 31.9933 18.5064 32.092 18.2628C32.1578 18.0953 32.092 17.8364 31.8946 17.608C31.2367 16.7553 31.2531 16.7248 32.2894 17.0903C32.3881 17.1207 32.5197 17.0446 32.5855 16.9075C32.6512 16.7248 32.5361 16.6182 32.1907 16.4964C31.5328 16.2984 31.5657 16.1309 32.2729 16.0091C32.7499 15.9177 33.1776 15.5675 33.1776 15.2629C33.1776 15.2173 32.8322 15.2782 32.4045 15.4C31.6808 15.6132 31.5986 15.598 31.4176 15.3543C30.7926 14.4863 30.7433 14.4559 30.6281 14.73Z" fill="#7642CA"/>
<path d="M28.7037 18.6892C28.457 19.0394 28.4734 19.1003 29.2794 20.0749C29.9538 20.882 30.1511 21.0342 30.2663 20.8515C30.365 20.6992 30.3485 20.5469 30.2334 20.4403C29.9702 20.1967 30.5294 19.4506 31.0229 19.3896C31.796 19.2983 31.5328 19.0089 30.4307 18.7349C29.8222 18.5826 29.23 18.4303 29.1313 18.3998C29.0327 18.3694 28.8353 18.5064 28.7037 18.6892ZM30.2005 19.2069C30.2169 19.2221 30.1347 19.3896 30.0031 19.5724C29.7564 19.8922 29.7564 19.8922 29.3945 19.4201L29.0162 18.9328L29.5754 19.0394C29.888 19.1003 30.1676 19.1765 30.2005 19.2069Z" fill="#7642CA"/>
<path d="M27.7168 19.9683C27.6345 20.0292 27.5852 20.3794 27.5852 20.7449C27.5852 21.4606 27.4043 21.5672 27.0259 21.0647C26.8121 20.7906 26.7463 20.7754 26.516 20.9429C26.2858 21.1256 26.3516 21.2474 27.1904 22.024C27.9306 22.7245 28.1938 22.8768 28.3582 22.7397C28.5392 22.6027 28.5227 22.5113 28.2431 22.2372C27.7497 21.7499 27.8319 21.6586 28.6214 21.7652C29.1642 21.8413 29.3945 21.8108 29.5425 21.6433C29.707 21.4606 29.6248 21.3997 28.9833 21.3083C28.5556 21.2626 28.1938 21.1256 28.1609 21.0342C28.1444 20.9429 28.0457 20.6383 27.9799 20.3642C27.8977 20.0749 27.7826 19.9074 27.7168 19.9683Z" fill="#7642CA"/>
<path d="M11.3673 23.2575L10.7916 24.3691L11.5811 24.7041C12.0252 24.9021 12.5022 25.0543 12.6502 25.0543C12.9792 25.0543 13.3411 24.5214 13.2095 24.2016C13.1601 24.0798 13.2588 23.8513 13.4398 23.6838C13.8839 23.2727 13.7029 22.9681 12.7654 22.5265L11.9594 22.1458L11.3673 23.2575ZM13.0779 23.3488C13.0121 23.6686 12.7325 23.7295 12.3706 23.4859C12.1897 23.3488 12.1075 23.1813 12.1732 23.0291C12.2555 22.8159 12.3377 22.8006 12.6996 22.9529C12.9299 23.0443 13.0943 23.227 13.0779 23.3488ZM12.4035 23.9123C12.7654 24.1559 12.7489 24.5975 12.3871 24.5975C12.0088 24.5975 11.5811 24.1864 11.6798 23.9275C11.8114 23.6229 11.9594 23.6229 12.4035 23.9123Z" fill="#7642CA"/>
<path d="M24.4765 22.2981C24.312 22.3895 24.2955 22.4961 24.4436 22.7397C24.5423 22.9072 24.6245 23.1204 24.6245 23.1966C24.6245 23.3184 23.8021 23.7448 23.7199 23.6534C23.7034 23.6229 23.5718 23.425 23.4567 23.1966C23.2922 22.892 23.1606 22.8159 22.9961 22.9225C22.7988 23.0291 22.8316 23.227 23.2758 24.095C23.5554 24.6584 23.8843 25.1305 23.9995 25.1305C24.2297 25.1305 24.2462 24.6889 24.0653 24.2777C23.983 24.0798 24.0817 23.9884 24.46 23.8513C24.9535 23.6991 24.9864 23.7143 25.1673 24.1407C25.3647 24.628 25.414 24.6584 25.743 24.4605C25.9239 24.3691 25.8417 24.1102 25.3811 23.2422C25.0522 22.6484 24.7725 22.1611 24.7396 22.1611C24.7232 22.1611 24.6081 22.222 24.4765 22.2981Z" fill="#7642CA"/>
<path d="M14.1141 24.293C13.7523 24.8564 13.4398 25.3589 13.4398 25.4198C13.4398 25.6025 13.9168 25.5112 14.0483 25.2827C14.2622 24.9477 15.4135 25.2675 15.4135 25.6634C15.4135 25.8462 15.5287 25.968 15.6767 25.968C15.9234 25.968 15.9399 25.8309 15.8412 25.0391C15.7919 24.5214 15.7425 23.9427 15.7425 23.76C15.7425 23.5011 15.6274 23.3945 15.2655 23.3488C14.8379 23.2879 14.7392 23.3793 14.1141 24.293ZM15.2491 24.3539C15.2491 24.7955 15.1997 24.8564 14.9201 24.7955C14.5418 24.7041 14.5089 24.5518 14.7885 24.1407C15.101 23.6991 15.2491 23.7752 15.2491 24.3539Z" fill="#7642CA"/>
<path d="M21.2197 23.425C20.4467 23.5925 20.4631 23.5468 20.9237 25.2066C21.1375 25.9528 21.121 25.9375 22.3711 25.6482C22.7001 25.5721 22.9797 25.4046 22.9797 25.2828C22.9797 25.1152 22.8646 25.1 22.4533 25.2218C21.6803 25.4198 21.4994 25.3893 21.4994 25.0696C21.4994 24.8716 21.6638 24.7346 22.075 24.6432C22.4698 24.567 22.6014 24.4605 22.5191 24.3386C22.4205 24.2016 22.2395 24.1864 21.8777 24.2777C21.4665 24.3843 21.3349 24.3691 21.2526 24.1864C21.1375 23.8818 21.1375 23.897 21.8119 23.7295C22.4205 23.5925 22.7165 23.2118 22.2066 23.2422C22.0421 23.2575 21.598 23.3336 21.2197 23.425Z" fill="#7642CA"/>
<path d="M16.5649 23.7904C16.5649 23.8666 16.7129 24.0798 16.8939 24.293C17.3051 24.7802 17.3051 24.8716 16.8116 25.5568C16.4169 26.0898 16.4169 26.1203 16.7129 26.1203C16.8774 26.1203 17.2557 25.8614 17.5353 25.5568L18.0288 24.9782L18.0452 25.5416C18.0452 26.0137 18.111 26.1203 18.3578 26.1203C18.6209 26.1203 18.6867 25.9985 18.7361 25.5416L18.7854 24.9782L19.1637 25.5416C19.394 25.8919 19.6736 26.1203 19.871 26.1203C20.2657 26.1203 20.2657 26.0746 19.7559 25.3589L19.3282 24.765L19.7723 24.232C20.1671 23.7448 20.1835 23.6838 19.9203 23.6838C19.7394 23.6838 19.4104 23.897 19.1637 24.1711L18.7196 24.6736L18.7032 24.1711C18.7032 23.7904 18.6374 23.6838 18.3742 23.6838C18.111 23.6838 18.0452 23.7904 18.0452 24.1407C18.0452 24.3843 17.9794 24.5975 17.9137 24.5975C17.8479 24.5975 17.6505 24.3843 17.5024 24.1407C17.2393 23.7448 16.5649 23.4859 16.5649 23.7904Z" fill="#7642CA"/>
</svg>
