<svg width="1328" height="71" viewBox="0 0 1328 71" fill="none" xmlns="http://www.w3.org/2000/svg">
<path d="M22.2963 71V12.8072H-0.0413056V1.974H56.1861V12.8072H33.8485V71H22.2963ZM73.4299 45.307V36.2473H136.704V45.307H73.4299ZM171.741 71L180.849 52.4013L157.025 1.974H170.063L186.888 40.2259L204.241 1.974H216.56L184.06 71H171.741ZM220.799 71V1.974H232.351V31.0224H265.043V1.974H276.547V71H265.043V41.8557H232.351V71H220.799ZM342.523 71H330.827V22.3463L298.806 71H287.11V1.974H298.806V50.6277L330.827 1.974H342.523V71ZM353.047 71V1.974H380.417C385.083 1.974 388.902 2.91672 391.874 4.80215C394.878 6.65563 397.099 9.03638 398.537 11.9444C400.007 14.8525 400.742 17.8564 400.742 20.9562C400.742 24.759 399.831 27.9866 398.009 30.639C396.22 33.2914 393.775 35.0809 390.675 36.0077V33.6109C395.021 34.6016 398.313 36.6628 400.55 39.7945C402.819 42.9262 403.953 46.4894 403.953 50.4839C403.953 54.5744 403.17 58.1535 401.604 61.2213C400.039 64.2891 397.706 66.6859 394.606 68.4115C391.538 70.1372 387.735 71 383.198 71H353.047ZM364.743 60.1188H381.759C383.773 60.1188 385.578 59.7194 387.176 58.9205C388.774 58.0896 390.02 56.9391 390.915 55.4692C391.842 53.9672 392.305 52.1936 392.305 50.1484C392.305 48.2949 391.906 46.6332 391.107 45.1632C390.308 43.6932 389.141 42.5268 387.608 41.6639C386.074 40.7692 384.236 40.3218 382.095 40.3218H364.743V60.1188ZM364.743 29.5365H380.274C381.935 29.5365 383.421 29.2169 384.731 28.5778C386.042 27.9386 387.08 26.9959 387.847 25.7496C388.614 24.5033 388.998 22.9694 388.998 21.1479C388.998 18.7512 388.231 16.7539 386.697 15.156C385.163 13.5582 383.022 12.7593 380.274 12.7593H364.743V29.5365ZM410.651 71V1.974H455.23V12.8072H422.203V29.8241H449.478V40.6573H422.203V60.1668H455.23V71H410.651ZM463.854 71V1.974H492.376C493.047 1.974 493.909 2.00596 494.964 2.06987C496.019 2.10183 496.993 2.1977 497.888 2.35748C501.883 2.96465 505.174 4.29084 507.763 6.33606C510.383 8.38127 512.316 10.9698 513.563 14.1015C514.841 17.2013 515.48 20.6526 515.48 24.4554C515.48 28.2262 514.841 31.6775 513.563 34.8093C512.284 37.9091 510.335 40.4816 507.715 42.5268C505.126 44.572 501.851 45.8982 497.888 46.5054C496.993 46.6332 496.003 46.7291 494.916 46.793C493.862 46.8569 493.015 46.8888 492.376 46.8888H475.407V71H463.854ZM475.407 36.1035H491.896C492.535 36.1035 493.254 36.0716 494.053 36.0077C494.852 35.9437 495.587 35.8159 496.258 35.6242C498.176 35.1448 499.678 34.298 500.764 33.0836C501.883 31.8693 502.666 30.4952 503.113 28.9612C503.592 27.4273 503.832 25.9254 503.832 24.4554C503.832 22.9854 503.592 21.4834 503.113 19.9495C502.666 18.3837 501.883 16.9935 500.764 15.7792C499.678 14.5649 498.176 13.718 496.258 13.2387C495.587 13.0469 494.852 12.9351 494.053 12.9031C493.254 12.8392 492.535 12.8072 491.896 12.8072H475.407V36.1035ZM551.4 72.438C544.497 72.438 538.585 70.9361 533.664 67.9322C528.743 64.8963 524.956 60.6781 522.303 55.2774C519.683 49.8768 518.373 43.6133 518.373 36.487C518.373 29.3607 519.683 23.0972 522.303 17.6966C524.956 12.2959 528.743 8.09367 533.664 5.08976C538.585 2.05389 544.497 0.535962 551.4 0.535962C559.357 0.535962 565.988 2.53324 571.293 6.5278C576.597 10.4904 580.32 15.8431 582.461 22.5859L570.813 25.7976C569.471 21.2917 567.186 17.7765 563.959 15.2519C560.731 12.6954 556.545 11.4171 551.4 11.4171C546.766 11.4171 542.899 12.4557 539.799 14.5329C536.732 16.6101 534.415 19.5341 532.849 23.305C531.315 27.0439 530.532 31.4379 530.5 36.487C530.5 41.5361 531.267 45.9461 532.801 49.717C534.367 53.4559 536.7 56.3639 539.799 58.4411C542.899 60.5183 546.766 61.5569 551.4 61.5569C556.545 61.5569 560.731 60.2786 563.959 57.7221C567.186 55.1656 569.471 51.6504 570.813 47.1764L582.461 50.3881C580.32 57.1309 576.597 62.4996 571.293 66.4941C565.988 70.4567 559.357 72.438 551.4 72.438ZM645.523 71H633.826V22.3463L601.806 71H590.11V1.974H601.806V50.6277L633.826 1.974H645.523V71ZM672.632 71V12.8072H650.294V1.974H706.522V12.8072H684.184V71H672.632ZM711.31 71V1.974H755.889V12.8072H722.862V29.8241H750.137V40.6573H722.862V60.1668H755.889V71H711.31ZM781.099 71V12.8072H758.762V1.974H814.989V12.8072H792.651V71H781.099ZM832.233 45.307V36.2473H872.498V45.307H832.233ZM894.714 82.5043V60.1668C896.951 60.1668 898.821 59.6075 900.323 58.489C901.824 57.3706 903.023 55.8207 903.918 53.8394C904.844 51.8581 905.563 49.5572 906.075 46.9368C906.586 44.2844 906.985 41.4722 907.273 38.5003C907.625 34.5696 907.928 30.7189 908.184 26.948C908.439 23.1452 908.679 19.2145 908.903 15.156C909.158 11.0656 909.446 6.63965 909.766 1.87813L954.776 1.974V60.1668H959.953V82.5043H948.449V71H906.266V82.5043H894.714ZM912.69 60.1668H943.224V12.8072L920.311 12.7114C920.088 16.0668 919.896 19.1985 919.736 22.1066C919.608 24.9827 919.432 27.9067 919.209 30.8786C919.017 33.8506 918.745 37.0942 918.394 40.6094C918.074 44.0607 917.723 46.9368 917.339 49.2376C916.988 51.5385 916.461 53.5358 915.758 55.2295C915.054 56.8912 914.032 58.537 912.69 60.1668ZM962.825 71V61.3172C964.359 61.4131 965.653 61.3012 966.708 60.9816C967.762 60.6301 968.641 59.975 969.344 59.0163C970.079 58.0257 970.718 56.6356 971.261 54.846C971.805 53.0245 972.332 50.7396 972.843 47.9913C973.578 44.0607 974.185 39.9703 974.665 35.72C975.176 31.4379 975.608 27.2356 975.959 23.1132C976.311 18.9589 976.582 15.0602 976.774 11.4171C976.966 7.7741 977.125 4.62639 977.253 1.974H1023.46V71H1011.91V12.8072H987.943C987.783 14.9483 987.591 17.5368 987.367 20.5727C987.176 23.5766 986.904 26.8361 986.553 30.3514C986.233 33.8666 985.818 37.5096 985.306 41.2805C984.827 45.0513 984.236 48.7583 983.533 52.4013C982.894 55.7248 982.127 58.7127 981.232 61.3651C980.337 63.9856 979.139 66.1586 977.637 67.8842C976.167 69.5779 974.233 70.7124 971.837 71.2876C969.472 71.8628 966.468 71.767 962.825 71ZM1083.88 71H1072.37V46.8888H1054.54L1049.6 46.4574C1043.72 45.4987 1039.36 43.0061 1036.52 38.9796C1033.67 34.9211 1032.25 30.0797 1032.25 24.4554C1032.25 20.6526 1032.89 17.2013 1034.17 14.1015C1035.45 10.9698 1037.38 8.38127 1039.97 6.33606C1042.56 4.29084 1045.85 2.96465 1049.84 2.35748C1050.77 2.1977 1051.74 2.10183 1052.77 2.06987C1053.82 2.00596 1054.68 1.974 1055.35 1.974H1083.88V71ZM1044.23 71H1031.15L1046.1 40.3218L1057.85 42.9103L1044.23 71ZM1072.37 36.1035V12.8072H1055.83C1055.19 12.8072 1054.48 12.8392 1053.68 12.9031C1052.88 12.9351 1052.14 13.0469 1051.47 13.2387C1049.55 13.718 1048.04 14.5649 1046.92 15.7792C1045.83 16.9935 1045.06 18.3837 1044.62 19.9495C1044.17 21.4834 1043.95 22.9854 1043.95 24.4554C1043.95 25.9254 1044.17 27.4273 1044.62 28.9612C1045.06 30.4952 1045.83 31.8693 1046.92 33.0836C1048.04 34.298 1049.55 35.1448 1051.47 35.6242C1052.14 35.8159 1052.88 35.9437 1053.68 36.0077C1054.48 36.0716 1055.19 36.1035 1055.83 36.1035H1072.37ZM1127.34 71V12.8072H1105V1.974H1161.23V12.8072H1138.89V71H1127.34ZM1166.02 71V1.974H1210.59V12.8072H1177.57V29.8241H1204.84V40.6573H1177.57V60.1668H1210.59V71H1166.02ZM1219.22 71V1.974H1265.38V12.8072H1230.77V27.667H1247.74C1248.38 27.667 1249.23 27.699 1250.28 27.7629C1251.37 27.7948 1252.36 27.8588 1253.25 27.9546C1257.12 28.402 1260.35 29.6323 1262.94 31.6456C1265.56 33.6589 1267.52 36.1994 1268.83 39.2672C1270.17 42.335 1270.85 45.6905 1270.85 49.3335C1270.85 52.9765 1270.19 56.348 1268.88 59.4477C1267.57 62.5156 1265.6 65.0561 1262.98 67.0694C1260.4 69.0507 1257.15 70.265 1253.25 70.7124C1252.36 70.8083 1251.38 70.8882 1250.33 70.9521C1249.27 70.984 1248.41 71 1247.74 71H1219.22ZM1230.77 60.1668H1247.26C1247.9 60.1668 1248.62 60.1348 1249.42 60.0709C1250.22 60.007 1250.95 59.9111 1251.62 59.7833C1254.5 59.1761 1256.48 57.8339 1257.57 55.7568C1258.65 53.6796 1259.2 51.5385 1259.2 49.3335C1259.2 47.0966 1258.65 44.9555 1257.57 42.9103C1256.48 40.8331 1254.5 39.4909 1251.62 38.8837C1250.95 38.724 1250.22 38.6281 1249.42 38.5961C1248.62 38.5322 1247.9 38.5003 1247.26 38.5003H1230.77V60.1668ZM1327.42 71H1315.92V46.8888H1298.09L1293.15 46.4574C1287.27 45.4987 1282.91 43.0061 1280.07 38.9796C1277.22 34.9211 1275.8 30.0797 1275.8 24.4554C1275.8 20.6526 1276.44 17.2013 1277.72 14.1015C1278.99 10.9698 1280.93 8.38127 1283.52 6.33606C1286.1 4.29084 1289.4 2.96465 1293.39 2.35748C1294.32 2.1977 1295.29 2.10183 1296.32 2.06987C1297.37 2.00596 1298.23 1.974 1298.9 1.974H1327.42V71ZM1287.78 71H1274.7L1289.65 40.3218L1301.4 42.9103L1287.78 71ZM1315.92 36.1035V12.8072H1299.38C1298.74 12.8072 1298.02 12.8392 1297.23 12.9031C1296.43 12.9351 1295.69 13.0469 1295.02 13.2387C1293.1 13.718 1291.59 14.5649 1290.47 15.7792C1289.38 16.9935 1288.61 18.3837 1288.17 19.9495C1287.72 21.4834 1287.5 22.9854 1287.5 24.4554C1287.5 25.9254 1287.72 27.4273 1288.17 28.9612C1288.61 30.4952 1289.38 31.8693 1290.47 33.0836C1291.59 34.298 1293.1 35.1448 1295.02 35.6242C1295.69 35.8159 1296.43 35.9437 1297.23 36.0077C1298.02 36.0716 1298.74 36.1035 1299.38 36.1035H1315.92Z" fill="url(#paint0_linear_371_52)"/>
<defs>
<linearGradient id="paint0_linear_371_52" x1="665.5" y1="2.72295" x2="665.5" y2="71.4709" gradientUnits="userSpaceOnUse">
<stop stop-color="#7642CA"/>
<stop offset="1" stop-color="#171719"/>
</linearGradient>
</defs>
</svg>
