<svg width="1330" height="131" viewBox="0 0 1330 131" fill="none" xmlns="http://www.w3.org/2000/svg">
<path d="M11.1094 18.6719V130H-7.44531V18.6719H-26V0.117188H29.6641V18.6719H11.1094ZM76.0508 74.3359H38.9414V55.7812H76.0508V74.3359ZM101.749 130H82.5449L103.604 65.0586L82.5449 0.117188H101.749L113.16 35.3711L124.571 0.117188H143.775L101.749 130ZM168.824 74.3359V130H150.27V0.117188H168.824V55.7812H187.379V0.117188H205.934V130H187.379V74.3359H168.824ZM270.875 0.117188V130H252.32V66.2646L235.064 130H215.211V0.117188H233.766V63.8525L251.021 0.117188H270.875ZM317.262 27.9492C317.262 25.4134 316.334 23.2487 314.479 21.4551C312.685 19.5996 310.52 18.6719 307.984 18.6719H298.707V55.7812H307.984C310.52 55.7812 312.685 54.8844 314.479 53.0908C316.334 51.2354 317.262 49.0397 317.262 46.5039V27.9492ZM307.984 74.3359H298.707V111.445H307.984C310.52 111.445 312.685 110.549 314.479 108.755C316.334 106.899 317.262 104.704 317.262 102.168V83.6133C317.262 81.0775 316.334 78.9128 314.479 77.1191C312.685 75.2637 310.52 74.3359 307.984 74.3359ZM307.984 0.117188C315.654 0.117188 322.21 2.83854 327.652 8.28125C333.095 13.724 335.816 20.2799 335.816 27.9492V46.5039C335.816 53.6784 333.435 59.8633 328.673 65.0586C333.435 70.2539 335.816 76.4388 335.816 83.6133V102.168C335.816 109.837 333.095 116.393 327.652 121.836C322.21 127.279 315.654 130 307.984 130H280.152V0.117188H307.984ZM363.648 111.445H391.48V130H345.094V0.117188H391.48V18.6719H363.648V55.7812H382.203V74.3359H363.648V111.445ZM437.867 27.9492C437.867 25.4134 436.939 23.2487 435.084 21.4551C433.29 19.5996 431.126 18.6719 428.59 18.6719H419.312V55.7812H428.59C431.126 55.7812 433.29 54.8844 435.084 53.0908C436.939 51.2354 437.867 49.0397 437.867 46.5039V27.9492ZM428.59 0.117188C436.259 0.117188 442.815 2.83854 448.258 8.28125C453.701 13.724 456.422 20.2799 456.422 27.9492V46.5039C456.422 54.1732 453.701 60.7292 448.258 66.1719C442.815 71.6146 436.259 74.3359 428.59 74.3359H419.312V130H400.758V0.117188H428.59ZM521.363 27.9492V46.5039H502.809V27.9492C502.809 25.4134 501.881 23.2487 500.025 21.4551C498.232 19.5996 496.067 18.6719 493.531 18.6719C490.995 18.6719 488.8 19.5996 486.944 21.4551C485.151 23.2487 484.254 25.4134 484.254 27.9492V102.168C484.254 104.704 485.151 106.899 486.944 108.755C488.8 110.549 490.995 111.445 493.531 111.445C496.067 111.445 498.232 110.549 500.025 108.755C501.881 106.899 502.809 104.704 502.809 102.168V83.6133H521.363V102.168C521.363 109.837 518.642 116.393 513.199 121.836C507.757 127.279 501.201 130 493.531 130C485.862 130 479.306 127.279 473.863 121.836C468.421 116.393 465.699 109.837 465.699 102.168V27.9492C465.699 20.2799 468.421 13.724 473.863 8.28125C479.306 2.83854 485.862 0.117188 493.531 0.117188C501.201 0.117188 507.757 2.83854 513.199 8.28125C518.642 13.724 521.363 20.2799 521.363 27.9492ZM586.305 0.117188V130H567.75V66.2646L550.494 130H530.641V0.117188H549.195V63.8525L566.451 0.117188H586.305ZM632.691 18.6719V130H614.137V18.6719H595.582V0.117188H651.246V18.6719H632.691ZM679.078 111.445H706.91V130H660.523V0.117188H706.91V18.6719H679.078V55.7812H697.633V74.3359H679.078V111.445ZM753.297 18.6719V130H734.742V18.6719H716.188V0.117188H771.852V18.6719H753.297ZM864.625 74.3359H799.684V55.7812H864.625V74.3359ZM893.014 111.445L896.168 0.117188H948.121V111.445H952.76V139.277H934.205V130H906.373V139.277H887.818V111.445H893.014ZM914.166 18.6719L911.568 111.445H929.566V18.6719H914.166ZM966.676 102.168V0.117188H1022.34V130H1003.79V18.6719H985.23V102.168C985.23 109.837 982.509 116.393 977.066 121.836C971.624 127.279 965.068 130 957.398 130V111.445C959.934 111.445 962.099 110.549 963.893 108.755C965.748 106.899 966.676 104.704 966.676 102.168ZM1050.17 27.9492V46.5039C1050.17 49.0397 1051.07 51.2354 1052.86 53.0908C1054.72 54.8844 1056.91 55.7812 1059.45 55.7812H1068.73V18.6719H1059.45C1056.91 18.6719 1054.72 19.5996 1052.86 21.4551C1051.07 23.2487 1050.17 25.4134 1050.17 27.9492ZM1059.45 0.117188H1087.28V130H1068.73V74.3359H1063.16L1050.54 130H1031.52L1045.07 70.3467C1043.21 69.2334 1041.45 67.8418 1039.78 66.1719C1034.34 60.7292 1031.62 54.1732 1031.62 46.5039V27.9492C1031.62 20.2799 1034.34 13.724 1039.78 8.28125C1045.22 2.83854 1051.78 0.117188 1059.45 0.117188ZM1147.58 18.6719V130H1129.03V18.6719H1115.11V0.117188H1161.5V18.6719H1147.58ZM1189.33 111.445H1217.16V130H1170.78V0.117188H1217.16V18.6719H1189.33V55.7812H1207.89V74.3359H1189.33V111.445ZM1282.11 0.117188V18.6719H1245V46.5039H1254.27C1261.94 46.5039 1268.5 49.2253 1273.94 54.668C1279.38 60.1107 1282.11 66.6667 1282.11 74.3359V102.168C1282.11 109.837 1279.38 116.393 1273.94 121.836C1268.5 127.279 1261.94 130 1254.27 130H1226.44V0.117188H1282.11ZM1254.27 65.0586H1245V111.445H1254.27C1256.81 111.445 1258.97 110.549 1260.77 108.755C1262.62 106.899 1263.55 104.704 1263.55 102.168V74.3359C1263.55 71.8001 1262.62 69.6354 1260.77 67.8418C1258.97 65.9863 1256.81 65.0586 1254.27 65.0586ZM1309.94 27.9492V46.5039C1309.94 49.0397 1310.83 51.2354 1312.63 53.0908C1314.48 54.8844 1316.68 55.7812 1319.21 55.7812H1328.49V18.6719H1319.21C1316.68 18.6719 1314.48 19.5996 1312.63 21.4551C1310.83 23.2487 1309.94 25.4134 1309.94 27.9492ZM1319.21 0.117188H1347.05V130H1328.49V74.3359H1322.93L1310.31 130H1291.29L1304.83 70.3467C1302.98 69.2334 1301.22 67.8418 1299.55 66.1719C1294.1 60.7292 1291.38 54.1732 1291.38 46.5039V27.9492C1291.38 20.2799 1294.1 13.724 1299.55 8.28125C1304.99 2.83854 1311.55 0.117188 1319.21 0.117188Z" fill="url(#paint0_linear_63_188)"/>
<defs>
<linearGradient id="paint0_linear_63_188" x1="665.5" y1="16.3765" x2="665.5" y2="131.306" gradientUnits="userSpaceOnUse">
<stop stop-color="#7642CA"/>
<stop offset="1" stop-color="#171719"/>
</linearGradient>
</defs>
</svg>
