<svg viewBox="0 0 1187 240" fill="none" xmlns="http://www.w3.org/2000/svg">
<path d="M52.7344 96.4425C52.7344 92.839 51.416 89.7628 48.7793 87.214C46.2305 84.5772 43.1543 83.2589 39.5508 83.2589H26.3672V135.993H39.5508C43.1543 135.993 46.2305 134.719 48.7793 132.17C51.416 129.533 52.7344 126.413 52.7344 122.81V96.4425ZM39.5508 162.36H26.3672V215.095H39.5508C43.1543 215.095 46.2305 213.82 48.7793 211.272C51.416 208.635 52.7344 205.515 52.7344 201.911V175.544C52.7344 171.941 51.416 168.864 48.7793 166.316C46.2305 163.679 43.1543 162.36 39.5508 162.36ZM39.5508 56.8917C50.4492 56.8917 59.7656 60.7589 67.5 68.4933C75.2344 76.2276 79.1016 85.544 79.1016 96.4425V122.81C79.1016 133.005 75.7178 141.794 68.9502 149.177C75.7178 156.56 79.1016 165.349 79.1016 175.544V201.911C79.1016 212.81 75.2344 222.126 67.5 229.86C59.7656 237.595 50.4492 241.462 39.5508 241.462H0V56.8917H39.5508ZM118.652 122.81H131.836C142.734 122.81 152.051 126.677 159.785 134.411C167.52 142.146 171.387 151.462 171.387 162.36V201.911C171.387 212.81 167.52 222.126 159.785 229.86C152.051 237.595 142.734 241.462 131.836 241.462H92.2852V56.8917H118.652V122.81ZM210.938 241.462H184.57V56.8917H210.938V241.462ZM131.836 149.177H118.652V215.095H131.836C135.439 215.095 138.516 213.82 141.064 211.272C143.701 208.635 145.02 205.515 145.02 201.911V162.36C145.02 158.757 143.701 155.681 141.064 153.132C138.516 150.495 135.439 149.177 131.836 149.177ZM303.223 56.8917V83.2589H250.488V122.81H263.672C274.57 122.81 283.887 126.677 291.621 134.411C299.355 142.146 303.223 151.462 303.223 162.36V201.911C303.223 212.81 299.355 222.126 291.621 229.86C283.887 237.595 274.57 241.462 263.672 241.462H224.121V56.8917H303.223ZM263.672 149.177H250.488V215.095H263.672C267.275 215.095 270.352 213.82 272.9 211.272C275.537 208.635 276.855 205.515 276.855 201.911V162.36C276.855 158.757 275.537 155.681 272.9 153.132C270.352 150.495 267.275 149.177 263.672 149.177ZM316.406 96.4425C316.406 85.544 320.273 76.2276 328.008 68.4933C335.742 60.7589 345.059 56.8917 355.957 56.8917C366.855 56.8917 376.172 60.7589 383.906 68.4933C391.641 76.2276 395.508 85.544 395.508 96.4425V201.911C395.508 212.81 391.641 222.126 383.906 229.86C376.172 237.595 366.855 241.462 355.957 241.462C345.059 241.462 335.742 237.595 328.008 229.86C320.273 222.126 316.406 212.81 316.406 201.911V96.4425ZM369.141 96.4425C369.141 92.839 367.822 89.7628 365.186 87.214C362.637 84.5772 359.561 83.2589 355.957 83.2589C352.354 83.2589 349.233 84.5772 346.597 87.214C344.048 89.7628 342.773 92.839 342.773 96.4425V201.911C342.773 205.515 344.048 208.635 346.597 211.272C349.233 213.82 352.354 215.095 355.957 215.095C359.561 215.095 362.637 213.82 365.186 211.272C367.822 208.635 369.141 205.515 369.141 201.911V96.4425ZM461.426 96.4425C461.426 92.839 460.107 89.7628 457.471 87.214C454.922 84.5772 451.846 83.2589 448.242 83.2589H435.059V135.993H448.242C451.846 135.993 454.922 134.719 457.471 132.17C460.107 129.533 461.426 126.413 461.426 122.81V96.4425ZM448.242 56.8917C459.141 56.8917 468.457 60.7589 476.191 68.4933C483.926 76.2276 487.793 85.544 487.793 96.4425V122.81C487.793 133.708 483.926 143.025 476.191 150.759C468.457 158.493 459.141 162.36 448.242 162.36H435.059V241.462H408.691V56.8917H448.242Z" fill="#7642CA"/>
<path d="M567.367 96.636V109.82H541V96.636C541 85.7376 544.867 76.4212 552.602 68.6868C560.336 60.9524 569.652 57.0853 580.551 57.0853C591.449 57.0853 600.766 60.9524 608.5 68.6868C616.234 76.4212 620.102 85.7376 620.102 96.636V123.003C620.102 133.199 616.718 141.988 609.95 149.37C616.718 156.753 620.102 165.542 620.102 175.738V202.105C620.102 213.003 616.234 222.32 608.5 230.054C600.766 237.788 591.449 241.656 580.551 241.656C569.652 241.656 560.336 237.788 552.602 230.054C544.867 222.32 541 213.003 541 202.105V188.921H567.367V202.105C567.367 205.708 568.642 208.828 571.19 211.465C573.827 214.014 576.947 215.288 580.551 215.288C584.154 215.288 587.23 214.014 589.779 211.465C592.416 208.828 593.734 205.708 593.734 202.105V175.738C593.734 172.134 592.416 169.058 589.779 166.509C587.23 163.872 584.154 162.554 580.551 162.554H567.367V136.187H580.551C584.154 136.187 587.23 134.912 589.779 132.364C592.416 129.727 593.734 126.607 593.734 123.003V96.636C593.734 93.0325 592.416 89.9563 589.779 87.4075C587.23 84.7708 584.154 83.4524 580.551 83.4524C576.947 83.4524 573.827 84.7708 571.19 87.4075C568.642 89.9563 567.367 93.0325 567.367 96.636ZM684.965 215.288H660.839L657.279 241.656H630.648L655.565 57.0853H690.238L715.023 241.656H688.524L684.965 215.288ZM664.398 188.921H681.405L672.836 125.64L664.398 188.921ZM798.08 83.4524V241.656H771.713V83.4524H751.938V57.0853H817.855V83.4524H798.08ZM831.039 96.636C831.039 85.7376 834.906 76.4212 842.641 68.6868C850.375 60.9524 859.691 57.0853 870.59 57.0853C881.488 57.0853 890.805 60.9524 898.539 68.6868C906.273 76.4212 910.141 85.7376 910.141 96.636V202.105C910.141 213.003 906.273 222.32 898.539 230.054C890.805 237.788 881.488 241.656 870.59 241.656C859.691 241.656 850.375 237.788 842.641 230.054C834.906 222.32 831.039 213.003 831.039 202.105V96.636ZM883.773 96.636C883.773 93.0325 882.455 89.9563 879.818 87.4075C877.27 84.7708 874.193 83.4524 870.59 83.4524C866.986 83.4524 863.866 84.7708 861.229 87.4075C858.681 89.9563 857.406 93.0325 857.406 96.636V202.105C857.406 205.708 858.681 208.828 861.229 211.465C863.866 214.014 866.986 215.288 870.59 215.288C874.193 215.288 877.27 214.014 879.818 211.465C882.455 208.828 883.773 205.708 883.773 202.105V96.636ZM1002.43 57.0853V83.4524H949.691V123.003H962.875C973.773 123.003 983.09 126.87 990.824 134.605C998.559 142.339 1002.43 151.656 1002.43 162.554V202.105C1002.43 213.003 998.559 222.32 990.824 230.054C983.09 237.788 973.773 241.656 962.875 241.656H923.324V57.0853H1002.43ZM962.875 149.37H949.691V215.288H962.875C966.479 215.288 969.555 214.014 972.104 211.465C974.74 208.828 976.059 205.708 976.059 202.105V162.554C976.059 158.95 974.74 155.874 972.104 153.325C969.555 150.689 966.479 149.37 962.875 149.37ZM1015.61 96.636C1015.61 85.7376 1019.48 76.4212 1027.21 68.6868C1034.95 60.9524 1044.26 57.0853 1055.16 57.0853C1066.06 57.0853 1075.38 60.9524 1083.11 68.6868C1090.84 76.4212 1094.71 85.7376 1094.71 96.636V202.105C1094.71 213.003 1090.84 222.32 1083.11 230.054C1075.38 237.788 1066.06 241.656 1055.16 241.656C1044.26 241.656 1034.95 237.788 1027.21 230.054C1019.48 222.32 1015.61 213.003 1015.61 202.105V96.636ZM1068.34 96.636C1068.34 93.0325 1067.03 89.9563 1064.39 87.4075C1061.84 84.7708 1058.76 83.4524 1055.16 83.4524C1051.56 83.4524 1048.44 84.7708 1045.8 87.4075C1043.25 89.9563 1041.98 93.0325 1041.98 96.636V202.105C1041.98 205.708 1043.25 208.828 1045.8 211.465C1048.44 214.014 1051.56 215.288 1055.16 215.288C1058.76 215.288 1061.84 214.014 1064.39 211.465C1067.03 208.828 1068.34 205.708 1068.34 202.105V96.636ZM1187 57.0853V241.656H1160.63V151.084L1136.11 241.656H1107.89V57.0853H1134.26V147.657L1158.78 57.0853H1187ZM1160.63 4.35088H1187C1187 15.2493 1183.13 24.5657 1175.39 32.3001C1167.66 40.0345 1158.34 43.9017 1147.45 43.9017C1136.55 43.9017 1127.23 40.0345 1119.5 32.3001C1111.76 24.5657 1107.89 15.2493 1107.89 4.35088H1134.26C1134.26 7.95439 1135.54 11.0745 1138.08 13.7112C1140.72 16.2601 1143.84 17.5345 1147.45 17.5345C1151.05 17.5345 1154.12 16.2601 1156.67 13.7112C1159.31 11.0745 1160.63 7.95439 1160.63 4.35088Z" fill="white"/>
</svg>
