<svg width="618" height="171" viewBox="0 0 618 171" fill="none" xmlns="http://www.w3.org/2000/svg">
<path d="M27.0555 69.38C22.3941 69.38 18.3155 68.7053 14.8195 67.356C11.3541 65.976 8.44079 64.2127 6.07946 62.066C3.74879 59.8887 1.95479 57.604 0.697457 55.212L10.1735 48.772C10.9095 50.4587 11.9828 52.084 13.3935 53.648C14.8041 55.1813 16.6595 56.454 18.9595 57.466C21.2595 58.4473 24.1115 58.938 27.5155 58.938C30.7968 58.938 33.4801 58.4473 35.5655 57.466C37.6508 56.4847 39.1841 55.1967 40.1655 53.602C41.1468 52.0073 41.6375 50.2747 41.6375 48.404C41.6375 46.0733 40.9935 44.2793 39.7055 43.022C38.4175 41.734 36.7308 40.8447 34.6455 40.354C32.5601 39.8327 30.3368 39.5413 27.9755 39.48C25.8288 39.4187 24.2801 39.3727 23.3295 39.342C22.3788 39.3113 21.7501 39.296 21.4435 39.296C21.1368 39.296 20.8455 39.296 20.5695 39.296V28.808C20.9068 28.808 21.4741 28.808 22.2715 28.808C23.0995 28.808 23.9428 28.808 24.8015 28.808C25.6908 28.7773 26.4115 28.7467 26.9635 28.716C30.4595 28.5627 33.3268 27.75 35.5655 26.278C37.8348 24.806 38.9695 22.6287 38.9695 19.746C38.9695 16.9553 37.9115 14.7627 35.7955 13.168C33.7101 11.5733 30.9348 10.776 27.4695 10.776C24.2188 10.776 21.3515 11.4967 18.8675 12.938C16.4141 14.3793 14.5588 16.0813 13.3015 18.044L5.52746 10.132C7.76612 7.40266 10.8021 5.10266 14.6355 3.23199C18.4995 1.33066 22.8848 0.379999 27.7915 0.379999C30.6741 0.379999 33.4801 0.763332 36.2095 1.53C38.9388 2.266 41.3921 3.40066 43.5695 4.934C45.7468 6.46733 47.4795 8.43 48.7675 10.822C50.0555 13.214 50.6995 16.066 50.6995 19.378C50.6995 22.414 50.1168 25.22 48.9515 27.796C47.8168 30.3413 46.2221 32.4267 44.1675 34.052C47.0808 35.2173 49.3348 36.996 50.9295 39.388C52.5548 41.78 53.3675 44.8007 53.3675 48.45C53.3675 52.7433 52.2021 56.454 49.8715 59.582C47.5408 62.71 44.3821 65.1327 40.3955 66.85C36.4395 68.5367 31.9928 69.38 27.0555 69.38ZM57.0396 79.04V57.604C59.1862 57.604 60.9802 57.0673 62.4216 55.994C63.8629 54.9207 65.0129 53.4333 65.8716 51.532C66.7609 49.6307 67.4509 47.4227 67.9416 44.908C68.4322 42.3627 68.8156 39.664 69.0916 36.812C69.4289 33.04 69.7202 29.3447 69.9656 25.726C70.2109 22.0767 70.4409 18.3047 70.6556 14.41C70.9009 10.4847 71.1769 6.23733 71.4836 1.668L114.678 1.76V57.604H119.646V79.04H108.606V68H68.1256V79.04H57.0396ZM74.2896 57.604H103.592V12.156L81.6036 12.064C81.3889 15.284 81.2049 18.2893 81.0516 21.08C80.9289 23.84 80.7602 26.646 80.5456 29.498C80.3616 32.35 80.1009 35.4627 79.7636 38.836C79.4569 42.148 79.1196 44.908 78.7516 47.116C78.4142 49.324 77.9082 51.2407 77.2336 52.866C76.5589 54.4607 75.5776 56.04 74.2896 57.604ZM127.001 68V1.76H169.781V12.156H138.087V28.486H164.261V38.882H138.087V57.604H169.781V68H127.001ZM203.286 69.38C196.662 69.38 190.989 67.9387 186.266 65.056C181.544 62.1427 177.91 58.0947 175.364 52.912C172.85 47.7293 171.592 41.7187 171.592 34.88C171.592 28.0413 172.85 22.0307 175.364 16.848C177.91 11.6653 181.544 7.63266 186.266 4.74999C190.989 1.83666 196.662 0.379999 203.286 0.379999C210.922 0.379999 217.286 2.29667 222.376 6.13C227.467 9.93266 231.04 15.0693 233.094 21.54L221.916 24.622C220.628 20.298 218.436 16.9247 215.338 14.502C212.241 12.0487 208.224 10.822 203.286 10.822C198.84 10.822 195.129 11.8187 192.154 13.812C189.21 15.8053 186.987 18.6113 185.484 22.23C184.012 25.818 183.261 30.0347 183.23 34.88C183.23 39.7253 183.966 43.9573 185.438 47.576C186.941 51.164 189.18 53.9547 192.154 55.948C195.129 57.9413 198.84 58.938 203.286 58.938C208.224 58.938 212.241 57.7113 215.338 55.258C218.436 52.8047 220.628 49.4313 221.916 45.138L233.094 48.22C231.04 54.6907 227.467 59.8427 222.376 63.676C217.286 67.4787 210.922 69.38 203.286 69.38ZM240.342 68V1.76H251.428V24.898H267.712C268.326 24.898 269.154 24.9287 270.196 24.99C271.239 25.0207 272.19 25.1127 273.048 25.266C276.851 25.8487 279.994 27.1213 282.478 29.084C284.993 31.0467 286.848 33.5307 288.044 36.536C289.271 39.5107 289.884 42.8073 289.884 46.426C289.884 50.0753 289.271 53.4027 288.044 56.408C286.848 59.3827 284.993 61.8513 282.478 63.814C279.994 65.7767 276.851 67.0493 273.048 67.632C272.19 67.7547 271.239 67.8467 270.196 67.908C269.184 67.9693 268.356 68 267.712 68H240.342ZM251.428 57.604H267.252C267.896 57.604 268.586 57.5733 269.322 57.512C270.089 57.4507 270.81 57.3433 271.484 57.19C273.294 56.73 274.72 55.9173 275.762 54.752C276.836 53.5867 277.587 52.268 278.016 50.796C278.476 49.2933 278.706 47.8367 278.706 46.426C278.706 45.0153 278.476 43.574 278.016 42.102C277.587 40.63 276.836 39.3113 275.762 38.146C274.72 36.9807 273.294 36.168 271.484 35.708C270.81 35.524 270.089 35.4013 269.322 35.34C268.586 35.2787 267.896 35.248 267.252 35.248H251.428V57.604ZM312.899 68V1.76H339.165C343.642 1.76 347.307 2.66466 350.159 4.474C353.041 6.25266 355.173 8.53733 356.553 11.328C357.963 14.1187 358.669 17.0013 358.669 19.976C358.669 23.6253 357.795 26.7227 356.047 29.268C354.329 31.8133 351.983 33.5307 349.009 34.42V32.12C353.179 33.0707 356.338 35.0487 358.485 38.054C360.662 41.0593 361.751 44.4787 361.751 48.312C361.751 52.2373 360.999 55.672 359.497 58.616C357.994 61.56 355.755 63.86 352.781 65.516C349.837 67.172 346.187 68 341.833 68H312.899ZM324.123 57.558H340.453C342.385 57.558 344.117 57.1747 345.651 56.408C347.184 55.6107 348.38 54.5067 349.239 53.096C350.128 51.6547 350.573 49.9527 350.573 47.99C350.573 46.2113 350.189 44.6167 349.423 43.206C348.656 41.7953 347.537 40.676 346.065 39.848C344.593 38.9893 342.829 38.56 340.775 38.56H324.123V57.558ZM324.123 28.21H339.027C340.621 28.21 342.047 27.9033 343.305 27.29C344.562 26.6767 345.559 25.772 346.295 24.576C347.031 23.38 347.399 21.908 347.399 20.16C347.399 17.86 346.663 15.9433 345.191 14.41C343.719 12.8767 341.664 12.11 339.027 12.11H324.123V28.21ZM368.086 68V1.76H379.172V24.898H395.456C396.069 24.898 396.897 24.9287 397.94 24.99C398.982 25.0207 399.933 25.1127 400.792 25.266C404.594 25.8487 407.738 27.1213 410.222 29.084C412.736 31.0467 414.592 33.5307 415.788 36.536C417.014 39.5107 417.628 42.8073 417.628 46.426C417.628 50.0753 417.014 53.4027 415.788 56.408C414.592 59.3827 412.736 61.8513 410.222 63.814C407.738 65.7767 404.594 67.0493 400.792 67.632C399.933 67.7547 398.982 67.8467 397.94 67.908C396.928 67.9693 396.1 68 395.456 68H368.086ZM379.172 57.604H394.996C395.64 57.604 396.33 57.5733 397.066 57.512C397.832 57.4507 398.553 57.3433 399.228 57.19C401.037 56.73 402.463 55.9173 403.506 54.752C404.579 53.5867 405.33 52.268 405.76 50.796C406.22 49.2933 406.45 47.8367 406.45 46.426C406.45 45.0153 406.22 43.574 405.76 42.102C405.33 40.63 404.579 39.3113 403.506 38.146C402.463 36.9807 401.037 36.168 399.228 35.708C398.553 35.524 397.832 35.4013 397.066 35.34C396.33 35.2787 395.64 35.248 394.996 35.248H379.172V57.604ZM424.252 68V1.76H435.338V68H424.252ZM445.379 68V1.76H489.677V12.156H456.465V26.416H472.749C473.362 26.416 474.175 26.4467 475.187 26.508C476.229 26.5387 477.18 26.6 478.039 26.692C481.749 27.1213 484.847 28.302 487.331 30.234C489.845 32.166 491.731 34.604 492.989 37.548C494.277 40.492 494.921 43.712 494.921 47.208C494.921 50.704 494.292 53.9393 493.035 56.914C491.777 59.858 489.891 62.296 487.377 64.228C484.893 66.1293 481.78 67.2947 478.039 67.724C477.18 67.816 476.245 67.8927 475.233 67.954C474.221 67.9847 473.393 68 472.749 68H445.379ZM456.465 57.604H472.289C472.902 57.604 473.592 57.5733 474.359 57.512C475.125 57.4507 475.831 57.3587 476.475 57.236C479.235 56.6533 481.136 55.3653 482.179 53.372C483.221 51.3787 483.743 49.324 483.743 47.208C483.743 45.0613 483.221 43.0067 482.179 41.044C481.136 39.0507 479.235 37.7627 476.475 37.18C475.831 37.0267 475.125 36.9347 474.359 36.904C473.592 36.8427 472.902 36.812 472.289 36.812H456.465V57.604ZM529.391 69.38C522.767 69.38 517.093 67.9387 512.371 65.056C507.648 62.1427 504.014 58.0947 501.469 52.912C498.954 47.7293 497.697 41.7187 497.697 34.88C497.697 28.0413 498.954 22.0307 501.469 16.848C504.014 11.6653 507.648 7.63266 512.371 4.74999C517.093 1.83666 522.767 0.379999 529.391 0.379999C536.015 0.379999 541.688 1.83666 546.411 4.74999C551.164 7.63266 554.798 11.6653 557.313 16.848C559.858 22.0307 561.131 28.0413 561.131 34.88C561.131 41.7187 559.858 47.7293 557.313 52.912C554.798 58.0947 551.164 62.1427 546.411 65.056C541.688 67.9387 536.015 69.38 529.391 69.38ZM529.391 58.938C533.837 58.9687 537.533 57.9873 540.477 55.994C543.451 54.0007 545.675 51.1947 547.147 47.576C548.649 43.9573 549.401 39.7253 549.401 34.88C549.401 30.0347 548.649 25.8333 547.147 22.276C545.675 18.688 543.451 15.8973 540.477 13.904C537.533 11.9107 533.837 10.8833 529.391 10.822C524.944 10.7913 521.249 11.7727 518.305 13.766C515.361 15.7593 513.137 18.5653 511.635 22.184C510.163 25.8027 509.427 30.0347 509.427 34.88C509.427 39.7253 510.163 43.942 511.635 47.53C513.107 51.0873 515.315 53.8627 518.259 55.856C521.233 57.8493 524.944 58.8767 529.391 58.938ZM567.527 68V1.76H594.897C595.541 1.76 596.369 1.79066 597.381 1.852C598.393 1.88266 599.328 1.97466 600.187 2.128C604.02 2.71066 607.179 3.98333 609.663 5.946C612.177 7.90866 614.033 10.3927 615.229 13.398C616.455 16.3727 617.069 19.6847 617.069 23.334C617.069 26.9527 616.455 30.2647 615.229 33.27C614.002 36.2447 612.131 38.7133 609.617 40.676C607.133 42.6387 603.989 43.9113 600.187 44.494C599.328 44.6167 598.377 44.7087 597.335 44.77C596.323 44.8313 595.51 44.862 594.897 44.862H578.613V68H567.527ZM578.613 34.512H594.437C595.05 34.512 595.74 34.4813 596.507 34.42C597.273 34.3587 597.979 34.236 598.623 34.052C600.463 33.592 601.904 32.7793 602.947 31.614C604.02 30.4487 604.771 29.13 605.201 27.658C605.661 26.186 605.891 24.7447 605.891 23.334C605.891 21.9233 605.661 20.482 605.201 19.01C604.771 17.5073 604.02 16.1733 602.947 15.008C601.904 13.8427 600.463 13.03 598.623 12.57C597.979 12.386 597.273 12.2787 596.507 12.248C595.74 12.1867 595.05 12.156 594.437 12.156H578.613V34.512Z" fill="white"/>
<path d="M103.717 170.38C99.056 170.38 94.9773 169.705 91.4813 168.356C88.016 166.976 85.1027 165.213 82.7413 163.066C80.4107 160.889 78.6167 158.604 77.3593 156.212L86.8353 149.772C87.5713 151.459 88.6447 153.084 90.0553 154.648C91.466 156.181 93.3213 157.454 95.6213 158.466C97.9213 159.447 100.773 159.938 104.177 159.938C107.459 159.938 110.142 159.447 112.227 158.466C114.313 157.485 115.846 156.197 116.827 154.602C117.809 153.007 118.299 151.275 118.299 149.404C118.299 147.073 117.655 145.279 116.367 144.022C115.079 142.734 113.393 141.845 111.307 141.354C109.222 140.833 106.999 140.541 104.637 140.48C102.491 140.419 100.942 140.373 99.9913 140.342C99.0407 140.311 98.412 140.296 98.1053 140.296C97.7987 140.296 97.5073 140.296 97.2313 140.296V129.808C97.5687 129.808 98.136 129.808 98.9333 129.808C99.7613 129.808 100.605 129.808 101.463 129.808C102.353 129.777 103.073 129.747 103.625 129.716C107.121 129.563 109.989 128.75 112.227 127.278C114.497 125.806 115.631 123.629 115.631 120.746C115.631 117.955 114.573 115.763 112.457 114.168C110.372 112.573 107.597 111.776 104.131 111.776C100.881 111.776 98.0133 112.497 95.5293 113.938C93.076 115.379 91.2207 117.081 89.9633 119.044L82.1893 111.132C84.428 108.403 87.464 106.103 91.2973 104.232C95.1613 102.331 99.5467 101.38 104.453 101.38C107.336 101.38 110.142 101.763 112.871 102.53C115.601 103.266 118.054 104.401 120.231 105.934C122.409 107.467 124.141 109.43 125.429 111.822C126.717 114.214 127.361 117.066 127.361 120.378C127.361 123.414 126.779 126.22 125.613 128.796C124.479 131.341 122.884 133.427 120.829 135.052C123.743 136.217 125.997 137.996 127.591 140.388C129.217 142.78 130.029 145.801 130.029 149.45C130.029 153.743 128.864 157.454 126.533 160.582C124.203 163.71 121.044 166.133 117.057 167.85C113.101 169.537 108.655 170.38 103.717 170.38ZM132.643 169L153.527 102.76H169.765L190.649 169H179.241L160.289 109.568H162.773L144.051 169H132.643ZM144.281 154.648V144.298H179.057V154.648H144.281ZM227.78 169V113.156H206.344V102.76H260.302V113.156H238.866V169H227.78ZM292.911 170.38C286.287 170.38 280.614 168.939 275.891 166.056C271.168 163.143 267.534 159.095 264.989 153.912C262.474 148.729 261.217 142.719 261.217 135.88C261.217 129.041 262.474 123.031 264.989 117.848C267.534 112.665 271.168 108.633 275.891 105.75C280.614 102.837 286.287 101.38 292.911 101.38C299.535 101.38 305.208 102.837 309.931 105.75C314.684 108.633 318.318 112.665 320.833 117.848C323.378 123.031 324.651 129.041 324.651 135.88C324.651 142.719 323.378 148.729 320.833 153.912C318.318 159.095 314.684 163.143 309.931 166.056C305.208 168.939 299.535 170.38 292.911 170.38ZM292.911 159.938C297.358 159.969 301.053 158.987 303.997 156.994C306.972 155.001 309.195 152.195 310.667 148.576C312.17 144.957 312.921 140.725 312.921 135.88C312.921 131.035 312.17 126.833 310.667 123.276C309.195 119.688 306.972 116.897 303.997 114.904C301.053 112.911 297.358 111.883 292.911 111.822C288.464 111.791 284.769 112.773 281.825 114.766C278.881 116.759 276.658 119.565 275.155 123.184C273.683 126.803 272.947 131.035 272.947 135.88C272.947 140.725 273.683 144.942 275.155 148.53C276.627 152.087 278.835 154.863 281.779 156.856C284.754 158.849 288.464 159.877 292.911 159.938ZM331.047 169V102.76H375.345V113.156H342.133V127.416H358.417C359.031 127.416 359.843 127.447 360.855 127.508C361.898 127.539 362.849 127.6 363.707 127.692C367.418 128.121 370.515 129.302 372.999 131.234C375.514 133.166 377.4 135.604 378.657 138.548C379.945 141.492 380.589 144.712 380.589 148.208C380.589 151.704 379.961 154.939 378.703 157.914C377.446 160.858 375.56 163.296 373.045 165.228C370.561 167.129 367.449 168.295 363.707 168.724C362.849 168.816 361.913 168.893 360.901 168.954C359.889 168.985 359.061 169 358.417 169H331.047ZM342.133 158.604H357.957C358.571 158.604 359.261 158.573 360.027 158.512C360.794 158.451 361.499 158.359 362.143 158.236C364.903 157.653 366.805 156.365 367.847 154.372C368.89 152.379 369.411 150.324 369.411 148.208C369.411 146.061 368.89 144.007 367.847 142.044C366.805 140.051 364.903 138.763 362.143 138.18C361.499 138.027 360.794 137.935 360.027 137.904C359.261 137.843 358.571 137.812 357.957 137.812H342.133V158.604ZM415.059 170.38C408.435 170.38 402.762 168.939 398.039 166.056C393.316 163.143 389.682 159.095 387.137 153.912C384.622 148.729 383.365 142.719 383.365 135.88C383.365 129.041 384.622 123.031 387.137 117.848C389.682 112.665 393.316 108.633 398.039 105.75C402.762 102.837 408.435 101.38 415.059 101.38C421.683 101.38 427.356 102.837 432.079 105.75C436.832 108.633 440.466 112.665 442.981 117.848C445.526 123.031 446.799 129.041 446.799 135.88C446.799 142.719 445.526 148.729 442.981 153.912C440.466 159.095 436.832 163.143 432.079 166.056C427.356 168.939 421.683 170.38 415.059 170.38ZM415.059 159.938C419.506 159.969 423.201 158.987 426.145 156.994C429.12 155.001 431.343 152.195 432.815 148.576C434.318 144.957 435.069 140.725 435.069 135.88C435.069 131.035 434.318 126.833 432.815 123.276C431.343 119.688 429.12 116.897 426.145 114.904C423.201 112.911 419.506 111.883 415.059 111.822C410.612 111.791 406.917 112.773 403.973 114.766C401.029 116.759 398.806 119.565 397.303 123.184C395.831 126.803 395.095 131.035 395.095 135.88C395.095 140.725 395.831 144.942 397.303 148.53C398.775 152.087 400.983 154.863 403.927 156.856C406.902 158.849 410.612 159.877 415.059 159.938ZM453.195 169V102.76H464.419V149.45L495.147 102.76H506.371V169H495.147V122.31L464.419 169H453.195ZM479.737 97.148C477.161 97.148 474.815 96.5193 472.699 95.262C470.614 94.0047 468.942 92.3333 467.685 90.248C466.428 88.132 465.799 85.786 465.799 83.21H474.447C474.447 84.682 474.953 85.9393 475.965 86.982C477.008 87.994 478.265 88.5 479.737 88.5C481.209 88.5 482.451 87.994 483.463 86.982C484.506 85.9393 485.027 84.682 485.027 83.21H493.675C493.675 85.786 493.046 88.132 491.789 90.248C490.532 92.3333 488.845 94.0047 486.729 95.262C484.613 96.5193 482.282 97.148 479.737 97.148ZM521.07 169V158.834H532.156V169H521.07ZM521.07 152.44V102.76H532.156V152.44H521.07Z" fill="#7F49D8"/>
</svg>
