<svg width="1091" height="98" viewBox="0 0 1091 98" fill="none" xmlns="http://www.w3.org/2000/svg">
<path d="M26.9 87.38C22.2387 87.38 18.16 86.7053 14.664 85.356C11.1987 83.976 8.28533 82.2127 5.924 80.066C3.59333 77.8887 1.79933 75.604 0.542 73.212L10.018 66.772C10.754 68.4587 11.8273 70.084 13.238 71.648C14.6487 73.1813 16.504 74.454 18.804 75.466C21.104 76.4473 23.956 76.938 27.36 76.938C30.6413 76.938 33.3247 76.4473 35.41 75.466C37.4953 74.4847 39.0287 73.1967 40.01 71.602C40.9913 70.0073 41.482 68.2747 41.482 66.404C41.482 64.0733 40.838 62.2793 39.55 61.022C38.262 59.734 36.5753 58.8447 34.49 58.354C32.4047 57.8327 30.1813 57.5413 27.82 57.48C25.6733 57.4187 24.1247 57.3727 23.174 57.342C22.2233 57.3113 21.5947 57.296 21.288 57.296C20.9813 57.296 20.69 57.296 20.414 57.296V46.808C20.7513 46.808 21.3187 46.808 22.116 46.808C22.944 46.808 23.7873 46.808 24.646 46.808C25.5353 46.7773 26.256 46.7467 26.808 46.716C30.304 46.5627 33.1713 45.75 35.41 44.278C37.6793 42.806 38.814 40.6287 38.814 37.746C38.814 34.9553 37.756 32.7627 35.64 31.168C33.5547 29.5733 30.7793 28.776 27.314 28.776C24.0633 28.776 21.196 29.4967 18.712 30.938C16.2587 32.3793 14.4033 34.0813 13.146 36.044L5.372 28.132C7.61067 25.4027 10.6467 23.1027 14.48 21.232C18.344 19.3307 22.7293 18.38 27.636 18.38C30.5187 18.38 33.3247 18.7633 36.054 19.53C38.7833 20.266 41.2367 21.4007 43.414 22.934C45.5913 24.4673 47.324 26.43 48.612 28.822C49.9 31.214 50.544 34.066 50.544 37.378C50.544 40.414 49.9613 43.22 48.796 45.796C47.6613 48.3413 46.0667 50.4267 44.012 52.052C46.9253 53.2173 49.1793 54.996 50.774 57.388C52.3993 59.78 53.212 62.8007 53.212 66.45C53.212 70.7433 52.0467 74.454 49.716 77.582C47.3853 80.71 44.2267 83.1327 40.24 84.85C36.284 86.5367 31.8373 87.38 26.9 87.38ZM56.8841 97.04V75.604C59.0308 75.604 60.8248 75.0673 62.2661 73.994C63.7074 72.9207 64.8574 71.4333 65.7161 69.532C66.6054 67.6307 67.2954 65.4227 67.7861 62.908C68.2768 60.3627 68.6601 57.664 68.9361 54.812C69.2734 51.04 69.5648 47.3447 69.8101 43.726C70.0554 40.0767 70.2854 36.3047 70.5001 32.41C70.7454 28.4847 71.0214 24.2373 71.3281 19.668L114.522 19.76V75.604H119.49V97.04H108.45V86H67.9701V97.04H56.8841ZM74.1341 75.604H103.436V30.156L81.4481 30.064C81.2334 33.284 81.0494 36.2893 80.8961 39.08C80.7734 41.84 80.6048 44.646 80.3901 47.498C80.2061 50.35 79.9454 53.4627 79.6081 56.836C79.3014 60.148 78.9641 62.908 78.5961 65.116C78.2588 67.324 77.7528 69.2407 77.0781 70.866C76.4034 72.4607 75.4221 74.04 74.1341 75.604ZM126.846 86V19.76H169.626V30.156H137.932V46.486H164.106V56.882H137.932V75.604H169.626V86H126.846ZM203.131 87.38C196.507 87.38 190.834 85.9387 186.111 83.056C181.388 80.1427 177.754 76.0947 175.209 70.912C172.694 65.7293 171.437 59.7187 171.437 52.88C171.437 46.0413 172.694 40.0307 175.209 34.848C177.754 29.6653 181.388 25.6327 186.111 22.75C190.834 19.8367 196.507 18.38 203.131 18.38C210.767 18.38 217.13 20.2967 222.221 24.13C227.312 27.9327 230.884 33.0693 232.939 39.54L221.761 42.622C220.473 38.298 218.28 34.9247 215.183 32.502C212.086 30.0487 208.068 28.822 203.131 28.822C198.684 28.822 194.974 29.8187 191.999 31.812C189.055 33.8053 186.832 36.6113 185.329 40.23C183.857 43.818 183.106 48.0347 183.075 52.88C183.075 57.7253 183.811 61.9573 185.283 65.576C186.786 69.164 189.024 71.9547 191.999 73.948C194.974 75.9413 198.684 76.938 203.131 76.938C208.068 76.938 212.086 75.7113 215.183 73.258C218.28 70.8047 220.473 67.4313 221.761 63.138L232.939 66.22C230.884 72.6907 227.312 77.8427 222.221 81.676C217.13 85.4787 210.767 87.38 203.131 87.38ZM240.187 86V19.76H251.273V42.898H267.557C268.17 42.898 268.998 42.9287 270.041 42.99C271.084 43.0207 272.034 43.1127 272.893 43.266C276.696 43.8487 279.839 45.1213 282.323 47.084C284.838 49.0467 286.693 51.5307 287.889 54.536C289.116 57.5107 289.729 60.8073 289.729 64.426C289.729 68.0753 289.116 71.4027 287.889 74.408C286.693 77.3827 284.838 79.8513 282.323 81.814C279.839 83.7767 276.696 85.0493 272.893 85.632C272.034 85.7547 271.084 85.8467 270.041 85.908C269.029 85.9693 268.201 86 267.557 86H240.187ZM251.273 75.604H267.097C267.741 75.604 268.431 75.5733 269.167 75.512C269.934 75.4507 270.654 75.3433 271.329 75.19C273.138 74.73 274.564 73.9173 275.607 72.752C276.68 71.5867 277.432 70.268 277.861 68.796C278.321 67.2933 278.551 65.8367 278.551 64.426C278.551 63.0153 278.321 61.574 277.861 60.102C277.432 58.63 276.68 57.3113 275.607 56.146C274.564 54.9807 273.138 54.168 271.329 53.708C270.654 53.524 269.934 53.4013 269.167 53.34C268.431 53.2787 267.741 53.248 267.097 53.248H251.273V75.604ZM312.743 86V19.76H339.009C343.487 19.76 347.151 20.6647 350.003 22.474C352.886 24.2527 355.017 26.5373 356.397 29.328C357.808 32.1187 358.513 35.0013 358.513 37.976C358.513 41.6253 357.639 44.7227 355.891 47.268C354.174 49.8133 351.828 51.5307 348.853 52.42V50.12C353.024 51.0707 356.183 53.0487 358.329 56.054C360.507 59.0593 361.595 62.4787 361.595 66.312C361.595 70.2373 360.844 73.672 359.341 76.616C357.839 79.56 355.6 81.86 352.625 83.516C349.681 85.172 346.032 86 341.677 86H312.743ZM323.967 75.558H340.297C342.229 75.558 343.962 75.1747 345.495 74.408C347.029 73.6107 348.225 72.5067 349.083 71.096C349.973 69.6547 350.417 67.9527 350.417 65.99C350.417 64.2113 350.034 62.6167 349.267 61.206C348.501 59.7953 347.381 58.676 345.909 57.848C344.437 56.9893 342.674 56.56 340.619 56.56H323.967V75.558ZM323.967 46.21H338.871C340.466 46.21 341.892 45.9033 343.149 45.29C344.407 44.6767 345.403 43.772 346.139 42.576C346.875 41.38 347.243 39.908 347.243 38.16C347.243 35.86 346.507 33.9433 345.035 32.41C343.563 30.8767 341.509 30.11 338.871 30.11H323.967V46.21ZM367.93 86V19.76H379.016V42.898H395.3C395.914 42.898 396.742 42.9287 397.784 42.99C398.827 43.0207 399.778 43.1127 400.636 43.266C404.439 43.8487 407.582 45.1213 410.066 47.084C412.581 49.0467 414.436 51.5307 415.632 54.536C416.859 57.5107 417.472 60.8073 417.472 64.426C417.472 68.0753 416.859 71.4027 415.632 74.408C414.436 77.3827 412.581 79.8513 410.066 81.814C407.582 83.7767 404.439 85.0493 400.636 85.632C399.778 85.7547 398.827 85.8467 397.784 85.908C396.772 85.9693 395.944 86 395.3 86H367.93ZM379.016 75.604H394.84C395.484 75.604 396.174 75.5733 396.91 75.512C397.677 75.4507 398.398 75.3433 399.072 75.19C400.882 74.73 402.308 73.9173 403.35 72.752C404.424 71.5867 405.175 70.268 405.604 68.796C406.064 67.2933 406.294 65.8367 406.294 64.426C406.294 63.0153 406.064 61.574 405.604 60.102C405.175 58.63 404.424 57.3113 403.35 56.146C402.308 54.9807 400.882 54.168 399.072 53.708C398.398 53.524 397.677 53.4013 396.91 53.34C396.174 53.2787 395.484 53.248 394.84 53.248H379.016V75.604ZM424.096 86V19.76H435.182V86H424.096ZM445.223 86V19.76H489.521V30.156H456.309V44.416H472.593C473.207 44.416 474.019 44.4467 475.031 44.508C476.074 44.5387 477.025 44.6 477.883 44.692C481.594 45.1213 484.691 46.302 487.175 48.234C489.69 50.166 491.576 52.604 492.833 55.548C494.121 58.492 494.765 61.712 494.765 65.208C494.765 68.704 494.137 71.9393 492.879 74.914C491.622 77.858 489.736 80.296 487.221 82.228C484.737 84.1293 481.625 85.2947 477.883 85.724C477.025 85.816 476.089 85.8927 475.077 85.954C474.065 85.9847 473.237 86 472.593 86H445.223ZM456.309 75.604H472.133C472.747 75.604 473.437 75.5733 474.203 75.512C474.97 75.4507 475.675 75.3587 476.319 75.236C479.079 74.6533 480.981 73.3653 482.023 71.372C483.066 69.3787 483.587 67.324 483.587 65.208C483.587 63.0613 483.066 61.0067 482.023 59.044C480.981 57.0507 479.079 55.7627 476.319 55.18C475.675 55.0267 474.97 54.9347 474.203 54.904C473.437 54.8427 472.747 54.812 472.133 54.812H456.309V75.604ZM529.235 87.38C522.611 87.38 516.938 85.9387 512.215 83.056C507.492 80.1427 503.858 76.0947 501.313 70.912C498.798 65.7293 497.541 59.7187 497.541 52.88C497.541 46.0413 498.798 40.0307 501.313 34.848C503.858 29.6653 507.492 25.6327 512.215 22.75C516.938 19.8367 522.611 18.38 529.235 18.38C535.859 18.38 541.532 19.8367 546.255 22.75C551.008 25.6327 554.642 29.6653 557.157 34.848C559.702 40.0307 560.975 46.0413 560.975 52.88C560.975 59.7187 559.702 65.7293 557.157 70.912C554.642 76.0947 551.008 80.1427 546.255 83.056C541.532 85.9387 535.859 87.38 529.235 87.38ZM529.235 76.938C533.682 76.9687 537.377 75.9873 540.321 73.994C543.296 72.0007 545.519 69.1947 546.991 65.576C548.494 61.9573 549.245 57.7253 549.245 52.88C549.245 48.0347 548.494 43.8333 546.991 40.276C545.519 36.688 543.296 33.8973 540.321 31.904C537.377 29.9107 533.682 28.8833 529.235 28.822C524.788 28.7913 521.093 29.7727 518.149 31.766C515.205 33.7593 512.982 36.5653 511.479 40.184C510.007 43.8027 509.271 48.0347 509.271 52.88C509.271 57.7253 510.007 61.942 511.479 65.53C512.951 69.0873 515.159 71.8627 518.103 73.856C521.078 75.8493 524.788 76.8767 529.235 76.938ZM567.371 86V19.76H594.741C595.385 19.76 596.213 19.7907 597.225 19.852C598.237 19.8827 599.173 19.9747 600.031 20.128C603.865 20.7107 607.023 21.9833 609.507 23.946C612.022 25.9087 613.877 28.3927 615.073 31.398C616.3 34.3727 616.913 37.6847 616.913 41.334C616.913 44.9527 616.3 48.2647 615.073 51.27C613.847 54.2447 611.976 56.7133 609.461 58.676C606.977 60.6387 603.834 61.9113 600.031 62.494C599.173 62.6167 598.222 62.7087 597.179 62.77C596.167 62.8313 595.355 62.862 594.741 62.862H578.457V86H567.371ZM578.457 52.512H594.281C594.895 52.512 595.585 52.4813 596.351 52.42C597.118 52.3587 597.823 52.236 598.467 52.052C600.307 51.592 601.749 50.7793 602.791 49.614C603.865 48.4487 604.616 47.13 605.045 45.658C605.505 44.186 605.735 42.7447 605.735 41.334C605.735 39.9233 605.505 38.482 605.045 37.01C604.616 35.5073 603.865 34.1733 602.791 33.008C601.749 31.8427 600.307 31.03 598.467 30.57C597.823 30.386 597.118 30.2787 596.351 30.248C595.585 30.1867 594.895 30.156 594.281 30.156H578.457V52.512Z" fill="white"/>
<path d="M662.487 87.38C657.826 87.38 653.747 86.7053 650.251 85.356C646.786 83.976 643.872 82.2127 641.511 80.066C639.18 77.8887 637.386 75.604 636.129 73.212L645.605 66.772C646.341 68.4587 647.414 70.084 648.825 71.648C650.236 73.1813 652.091 74.454 654.391 75.466C656.691 76.4473 659.543 76.938 662.947 76.938C666.228 76.938 668.912 76.4473 670.997 75.466C673.082 74.4847 674.616 73.1967 675.597 71.602C676.578 70.0073 677.069 68.2747 677.069 66.404C677.069 64.0733 676.425 62.2793 675.137 61.022C673.849 59.734 672.162 58.8447 670.077 58.354C667.992 57.8327 665.768 57.5413 663.407 57.48C661.26 57.4187 659.712 57.3727 658.761 57.342C657.81 57.3113 657.182 57.296 656.875 57.296C656.568 57.296 656.277 57.296 656.001 57.296V46.808C656.338 46.808 656.906 46.808 657.703 46.808C658.531 46.808 659.374 46.808 660.233 46.808C661.122 46.7773 661.843 46.7467 662.395 46.716C665.891 46.5627 668.758 45.75 670.997 44.278C673.266 42.806 674.401 40.6287 674.401 37.746C674.401 34.9553 673.343 32.7627 671.227 31.168C669.142 29.5733 666.366 28.776 662.901 28.776C659.65 28.776 656.783 29.4967 654.299 30.938C651.846 32.3793 649.99 34.0813 648.733 36.044L640.959 28.132C643.198 25.4027 646.234 23.1027 650.067 21.232C653.931 19.3307 658.316 18.38 663.223 18.38C666.106 18.38 668.912 18.7633 671.641 19.53C674.37 20.266 676.824 21.4007 679.001 22.934C681.178 24.4673 682.911 26.43 684.199 28.822C685.487 31.214 686.131 34.066 686.131 37.378C686.131 40.414 685.548 43.22 684.383 45.796C683.248 48.3413 681.654 50.4267 679.599 52.052C682.512 53.2173 684.766 54.996 686.361 57.388C687.986 59.78 688.799 62.8007 688.799 66.45C688.799 70.7433 687.634 74.454 685.303 77.582C682.972 80.71 679.814 83.1327 675.827 84.85C671.871 86.5367 667.424 87.38 662.487 87.38ZM691.413 86L712.297 19.76H728.535L749.419 86H738.011L719.059 26.568H721.543L702.821 86H691.413ZM703.051 71.648V61.298H737.827V71.648H703.051ZM786.55 86V30.156H765.114V19.76H819.072V30.156H797.636V86H786.55ZM851.681 87.38C845.057 87.38 839.383 85.9387 834.661 83.056C829.938 80.1427 826.304 76.0947 823.759 70.912C821.244 65.7293 819.987 59.7187 819.987 52.88C819.987 46.0413 821.244 40.0307 823.759 34.848C826.304 29.6653 829.938 25.6327 834.661 22.75C839.383 19.8367 845.057 18.38 851.681 18.38C858.305 18.38 863.978 19.8367 868.701 22.75C873.454 25.6327 877.088 29.6653 879.603 34.848C882.148 40.0307 883.421 46.0413 883.421 52.88C883.421 59.7187 882.148 65.7293 879.603 70.912C877.088 76.0947 873.454 80.1427 868.701 83.056C863.978 85.9387 858.305 87.38 851.681 87.38ZM851.681 76.938C856.127 76.9687 859.823 75.9873 862.767 73.994C865.741 72.0007 867.965 69.1947 869.437 65.576C870.939 61.9573 871.691 57.7253 871.691 52.88C871.691 48.0347 870.939 43.8333 869.437 40.276C867.965 36.688 865.741 33.8973 862.767 31.904C859.823 29.9107 856.127 28.8833 851.681 28.822C847.234 28.7913 843.539 29.7727 840.595 31.766C837.651 33.7593 835.427 36.5653 833.925 40.184C832.453 43.8027 831.717 48.0347 831.717 52.88C831.717 57.7253 832.453 61.942 833.925 65.53C835.397 69.0873 837.605 71.8627 840.549 73.856C843.523 75.8493 847.234 76.8767 851.681 76.938ZM889.817 86V19.76H934.115V30.156H900.903V44.416H917.187C917.8 44.416 918.613 44.4467 919.625 44.508C920.668 44.5387 921.618 44.6 922.477 44.692C926.188 45.1213 929.285 46.302 931.769 48.234C934.284 50.166 936.17 52.604 937.427 55.548C938.715 58.492 939.359 61.712 939.359 65.208C939.359 68.704 938.73 71.9393 937.473 74.914C936.216 77.858 934.33 80.296 931.815 82.228C929.331 84.1293 926.218 85.2947 922.477 85.724C921.618 85.816 920.683 85.8927 919.671 85.954C918.659 85.9847 917.831 86 917.187 86H889.817ZM900.903 75.604H916.727C917.34 75.604 918.03 75.5733 918.797 75.512C919.564 75.4507 920.269 75.3587 920.913 75.236C923.673 74.6533 925.574 73.3653 926.617 71.372C927.66 69.3787 928.181 67.324 928.181 65.208C928.181 63.0613 927.66 61.0067 926.617 59.044C925.574 57.0507 923.673 55.7627 920.913 55.18C920.269 55.0267 919.564 54.9347 918.797 54.904C918.03 54.8427 917.34 54.812 916.727 54.812H900.903V75.604ZM973.829 87.38C967.205 87.38 961.531 85.9387 956.809 83.056C952.086 80.1427 948.452 76.0947 945.907 70.912C943.392 65.7293 942.135 59.7187 942.135 52.88C942.135 46.0413 943.392 40.0307 945.907 34.848C948.452 29.6653 952.086 25.6327 956.809 22.75C961.531 19.8367 967.205 18.38 973.829 18.38C980.453 18.38 986.126 19.8367 990.849 22.75C995.602 25.6327 999.236 29.6653 1001.75 34.848C1004.3 40.0307 1005.57 46.0413 1005.57 52.88C1005.57 59.7187 1004.3 65.7293 1001.75 70.912C999.236 76.0947 995.602 80.1427 990.849 83.056C986.126 85.9387 980.453 87.38 973.829 87.38ZM973.829 76.938C978.275 76.9687 981.971 75.9873 984.915 73.994C987.889 72.0007 990.113 69.1947 991.585 65.576C993.087 61.9573 993.839 57.7253 993.839 52.88C993.839 48.0347 993.087 43.8333 991.585 40.276C990.113 36.688 987.889 33.8973 984.915 31.904C981.971 29.9107 978.275 28.8833 973.829 28.822C969.382 28.7913 965.687 29.7727 962.743 31.766C959.799 33.7593 957.575 36.5653 956.073 40.184C954.601 43.8027 953.865 48.0347 953.865 52.88C953.865 57.7253 954.601 61.942 956.073 65.53C957.545 69.0873 959.753 71.8627 962.697 73.856C965.671 75.8493 969.382 76.8767 973.829 76.938ZM1011.96 86V19.76H1023.19V66.45L1053.92 19.76H1065.14V86H1053.92V39.31L1023.19 86H1011.96ZM1038.51 14.148C1035.93 14.148 1033.58 13.5193 1031.47 12.262C1029.38 11.0047 1027.71 9.33333 1026.45 7.24799C1025.2 5.13199 1024.57 2.78599 1024.57 0.209994H1033.22C1033.22 1.682 1033.72 2.93933 1034.73 3.98199C1035.78 4.99399 1037.03 5.49999 1038.51 5.49999C1039.98 5.49999 1041.22 4.99399 1042.23 3.98199C1043.28 2.93933 1043.8 1.682 1043.8 0.209994H1052.44C1052.44 2.78599 1051.82 5.13199 1050.56 7.24799C1049.3 9.33333 1047.61 11.0047 1045.5 12.262C1043.38 13.5193 1041.05 14.148 1038.51 14.148ZM1079.84 86V75.834H1090.93V86H1079.84ZM1079.84 69.44V19.76H1090.93V69.44H1079.84Z" fill="#7F49D8"/>
</svg>
