<svg xmlns="http://www.w3.org/2000/svg" fill="none" viewBox="0 25.056 306.74 206.19" style="max-height: 500px" width="306.74" height="206.19">
<path fill="#7642CA" d="M63.25 45.25C63.25 43.5417 62.625 42.0833 61.375 40.875C60.1667 39.625 58.7083 39 57 39H50.75V64H57C58.7083 64 60.1667 63.3958 61.375 62.1875C62.625 60.9375 63.25 59.4583 63.25 57.75V45.25ZM57 76.5H50.75V101.5H57C58.7083 101.5 60.1667 100.896 61.375 99.6875C62.625 98.4375 63.25 96.9583 63.25 95.25V82.75C63.25 81.0417 62.625 79.5833 61.375 78.375C60.1667 77.125 58.7083 76.5 57 76.5ZM57 26.5C62.1667 26.5 66.5833 28.3333 70.25 32C73.9167 35.6667 75.75 40.0833 75.75 45.25V57.75C75.75 62.5833 74.1458 66.75 70.9375 70.25C74.1458 73.75 75.75 77.9167 75.75 82.75V95.25C75.75 100.417 73.9167 104.833 70.25 108.5C66.5833 112.167 62.1667 114 57 114H38.25V26.5H57ZM94.5 57.75H100.75C105.917 57.75 110.333 59.5833 114 63.25C117.667 66.9167 119.5 71.3333 119.5 76.5V95.25C119.5 100.417 117.667 104.833 114 108.5C110.333 112.167 105.917 114 100.75 114H82V26.5H94.5V57.75ZM138.25 114H125.75V26.5H138.25V114ZM100.75 70.25H94.5V101.5H100.75C102.458 101.5 103.917 100.896 105.125 99.6875C106.375 98.4375 107 96.9583 107 95.25V76.5C107 74.7917 106.375 73.3333 105.125 72.125C103.917 70.875 102.458 70.25 100.75 70.25ZM182 26.5V39H157V57.75H163.25C168.417 57.75 172.833 59.5833 176.5 63.25C180.167 66.9167 182 71.3333 182 76.5V95.25C182 100.417 180.167 104.833 176.5 108.5C172.833 112.167 168.417 114 163.25 114H144.5V26.5H182ZM163.25 70.25H157V101.5H163.25C164.958 101.5 166.417 100.896 167.625 99.6875C168.875 98.4375 169.5 96.9583 169.5 95.25V76.5C169.5 74.7917 168.875 73.3333 167.625 72.125C166.417 70.875 164.958 70.25 163.25 70.25ZM188.25 45.25C188.25 40.0833 190.083 35.6667 193.75 32C197.417 28.3333 201.833 26.5 207 26.5C212.167 26.5 216.583 28.3333 220.25 32C223.917 35.6667 225.75 40.0833 225.75 45.25V95.25C225.75 100.417 223.917 104.833 220.25 108.5C216.583 112.167 212.167 114 207 114C201.833 114 197.417 112.167 193.75 108.5C190.083 104.833 188.25 100.417 188.25 95.25V45.25ZM213.25 45.25C213.25 43.5417 212.625 42.0833 211.375 40.875C210.167 39.625 208.708 39 207 39C205.292 39 203.812 39.625 202.562 40.875C201.354 42.0833 200.75 43.5417 200.75 45.25V95.25C200.75 96.9583 201.354 98.4375 202.562 99.6875C203.812 100.896 205.292 101.5 207 101.5C208.708 101.5 210.167 100.896 211.375 99.6875C212.625 98.4375 213.25 96.9583 213.25 95.25V45.25ZM257 45.25C257 43.5417 256.375 42.0833 255.125 40.875C253.917 39.625 252.458 39 250.75 39H244.5V64H250.75C252.458 64 253.917 63.3958 255.125 62.1875C256.375 60.9375 257 59.4583 257 57.75V45.25ZM250.75 26.5C255.917 26.5 260.333 28.3333 264 32C267.667 35.6667 269.5 40.0833 269.5 45.25V57.75C269.5 62.9167 267.667 67.3333 264 71C260.333 74.6667 255.917 76.5 250.75 76.5H244.5V114H232V26.5H250.75Z"/>
<path fill="white" d="M12.75 159.25V165.5H0.25V159.25C0.25 154.083 2.08333 149.667 5.75 146C9.41667 142.333 13.8333 140.5 19 140.5C24.1667 140.5 28.5833 142.333 32.25 146C35.9167 149.667 37.75 154.083 37.75 159.25V171.75C37.75 176.583 36.1458 180.75 32.9375 184.25C36.1458 187.75 37.75 191.917 37.75 196.75V209.25C37.75 214.417 35.9167 218.833 32.25 222.5C28.5833 226.167 24.1667 228 19 228C13.8333 228 9.41667 226.167 5.75 222.5C2.08333 218.833 0.25 214.417 0.25 209.25V203H12.75V209.25C12.75 210.958 13.3542 212.438 14.5625 213.688C15.8125 214.896 17.2917 215.5 19 215.5C20.7083 215.5 22.1667 214.896 23.375 213.688C24.625 212.438 25.25 210.958 25.25 209.25V196.75C25.25 195.042 24.625 193.583 23.375 192.375C22.1667 191.125 20.7083 190.5 19 190.5H12.75V178H19C20.7083 178 22.1667 177.396 23.375 176.188C24.625 174.938 25.25 173.458 25.25 171.75V159.25C25.25 157.542 24.625 156.083 23.375 154.875C22.1667 153.625 20.7083 153 19 153C17.2917 153 15.8125 153.625 14.5625 154.875C13.3542 156.083 12.75 157.542 12.75 159.25ZM68.5 215.5H57.0625L55.375 228H42.75L54.5625 140.5H71L82.75 228H70.1875L68.5 215.5ZM58.75 203H66.8125L62.75 173L58.75 203ZM122.125 153V228H109.625V153H100.25V140.5H131.5V153H122.125ZM137.75 159.25C137.75 154.083 139.583 149.667 143.25 146C146.917 142.333 151.333 140.5 156.5 140.5C161.667 140.5 166.083 142.333 169.75 146C173.417 149.667 175.25 154.083 175.25 159.25V209.25C175.25 214.417 173.417 218.833 169.75 222.5C166.083 226.167 161.667 228 156.5 228C151.333 228 146.917 226.167 143.25 222.5C139.583 218.833 137.75 214.417 137.75 209.25V159.25ZM162.75 159.25C162.75 157.542 162.125 156.083 160.875 154.875C159.667 153.625 158.208 153 156.5 153C154.792 153 153.312 153.625 152.062 154.875C150.854 156.083 150.25 157.542 150.25 159.25V209.25C150.25 210.958 150.854 212.438 152.062 213.688C153.312 214.896 154.792 215.5 156.5 215.5C158.208 215.5 159.667 214.896 160.875 213.688C162.125 212.438 162.75 210.958 162.75 209.25V159.25ZM219 140.5V153H194V171.75H200.25C205.417 171.75 209.833 173.583 213.5 177.25C217.167 180.917 219 185.333 219 190.5V209.25C219 214.417 217.167 218.833 213.5 222.5C209.833 226.167 205.417 228 200.25 228H181.5V140.5H219ZM200.25 184.25H194V215.5H200.25C201.958 215.5 203.417 214.896 204.625 213.688C205.875 212.438 206.5 210.958 206.5 209.25V190.5C206.5 188.792 205.875 187.333 204.625 186.125C203.417 184.875 201.958 184.25 200.25 184.25ZM225.25 159.25C225.25 154.083 227.083 149.667 230.75 146C234.417 142.333 238.833 140.5 244 140.5C249.167 140.5 253.583 142.333 257.25 146C260.917 149.667 262.75 154.083 262.75 159.25V209.25C262.75 214.417 260.917 218.833 257.25 222.5C253.583 226.167 249.167 228 244 228C238.833 228 234.417 226.167 230.75 222.5C227.083 218.833 225.25 214.417 225.25 209.25V159.25ZM250.25 159.25C250.25 157.542 249.625 156.083 248.375 154.875C247.167 153.625 245.708 153 244 153C242.292 153 240.812 153.625 239.562 154.875C238.354 156.083 237.75 157.542 237.75 159.25V209.25C237.75 210.958 238.354 212.438 239.562 213.688C240.812 214.896 242.292 215.5 244 215.5C245.708 215.5 247.167 214.896 248.375 213.688C249.625 212.438 250.25 210.958 250.25 209.25V159.25ZM306.5 140.5V228H294V185.062L282.375 228H269V140.5H281.5V183.438L293.125 140.5H306.5ZM294 115.5H306.5C306.5 120.667 304.667 125.083 301 128.75C297.333 132.417 292.917 134.25 287.75 134.25C282.583 134.25 278.167 132.417 274.5 128.75C270.833 125.083 269 120.667 269 115.5H281.5C281.5 117.208 282.104 118.688 283.312 119.938C284.562 121.146 286.042 121.75 287.75 121.75C289.458 121.75 290.917 121.146 292.125 119.938C293.375 118.688 294 117.208 294 115.5Z"/>
</svg>